/* XPM */
static char * bottom_left_active_xpm[] = {
"32 32 2 1",
" 	c None",
".	c #141A1B",
"............                    ",
"............                    ",
"............                    ",
"............                    ",
"............                    ",
"............                    ",
"............                    ",
"............                    ",
"............                    ",
"............                    ",
"............                    ",
"............                    ",
"............                    ",
"............                    ",
"............                    ",
"............                    ",
"............                    ",
"............                    ",
"............                    ",
"............                    ",
"................................",
"................................",
"................................",
"................................",
"................................",
"................................",
"................................",
"................................",
" ...............................",
" ...............................",
"  ..............................",
"    ............................"};
