/* XPM */
static char * bottom_right_active_xpm[] = {
"32 32 2 1",
" 	c None",
".	c #141A1B",
"                    ............",
"                    ............",
"                    ............",
"                    ............",
"                    ............",
"                    ............",
"                    ............",
"                    ............",
"                    ............",
"                    ............",
"                    ............",
"                    ............",
"                    ............",
"                    ............",
"                    ............",
"                    ............",
"                    ............",
"                    ............",
"                    ............",
"                    ............",
"................................",
"................................",
"................................",
"................................",
"................................",
"................................",
"................................",
"................................",
"............................... ",
"............................... ",
"..............................  ",
"............................    "};
