/* XPM */
static char * close_pressed_xpm[] = {
"43 58 283 2",
"  	c #141A1B",
". 	c #2B3031",
"+ 	c #262B2C",
"@ 	c #1C2122",
"# 	c #131A1B",
"$ 	c #121A1B",
"% 	c #101A1B",
"& 	c #0D1A1B",
"* 	c #081A1B",
"= 	c #041A1B",
"- 	c #001A1B",
"; 	c #0E1A1B",
"> 	c #271B1D",
", 	c #3B1C1E",
"' 	c #4F1E20",
") 	c #5F1F21",
"! 	c #6B2023",
"~ 	c #752024",
"{ 	c #7C2124",
"] 	c #802125",
"^ 	c #261B1D",
"/ 	c #171A1B",
"( 	c #2E1B1D",
"_ 	c #491E21",
": 	c #662125",
"< 	c #832428",
"[ 	c #9A262B",
"} 	c #AD282E",
"| 	c #BB2930",
"1 	c #C62A31",
"2 	c #CB2B32",
"3 	c #481E21",
"4 	c #161A1B",
"5 	c #261C1D",
"6 	c #471D1F",
"7 	c #681F22",
"8 	c #7F2126",
"9 	c #902429",
"0 	c #A2272D",
"a 	c #B42930",
"b 	c #C42B32",
"c 	c #D22D34",
"d 	c #DD2E36",
"e 	c #E62F38",
"f 	c #EB2F38",
"g 	c #7E2126",
"h 	c #671F22",
"i 	c #461D1F",
"j 	c #281C1D",
"k 	c #461F21",
"l 	c #772326",
"m 	c #A6272D",
"n 	c #C22A31",
"o 	c #D12C34",
"p 	c #DA2D35",
"q 	c #DF2E36",
"r 	c #E32E37",
"s 	c #E72F38",
"t 	c #EB3038",
"u 	c #EE3039",
"v 	c #F03039",
"w 	c #D02C34",
"x 	c #C12A31",
"y 	c #762226",
"z 	c #461E20",
"A 	c #281B1D",
"B 	c #111A1B",
"C 	c #251B1C",
"D 	c #401D1F",
"E 	c #632023",
"F 	c #882429",
"G 	c #AC282E",
"H 	c #CD2C34",
"I 	c #E22E37",
"J 	c #EC3038",
"K 	c #F13039",
"L 	c #E12E37",
"M 	c #CD2C33",
"N 	c #882428",
"O 	c #401D1E",
"P 	c #161B1C",
"Q 	c #411D1F",
"R 	c #6C2125",
"S 	c #C52B32",
"T 	c #DC2E36",
"U 	c #E62F37",
"V 	c #ED3038",
"W 	c #F23039",
"X 	c #DC2D35",
"Y 	c #C42A32",
"Z 	c #99262B",
"` 	c #6B2125",
" .	c #151A1B",
"..	c #6F2125",
"+.	c #9C262C",
"@.	c #C32B32",
"#.	c #C22B32",
"$.	c #6D2124",
"%.	c #3F1D1F",
"&.	c #241B1C",
"*.	c #CA2B33",
"=.	c #C92B33",
"-.	c #9B262C",
";.	c #692125",
">.	c #3F1D1E",
",.	c #98262B",
"'.	c #622023",
").	c #872429",
"!.	c #451E21",
"~.	c #251B1D",
"{.	c #762326",
"].	c #DC2D36",
"^.	c #772226",
"/.	c #E72F37",
"(.	c #CE2C34",
"_.	c #A7272D",
":.	c #EA2F37",
"<.	c #DB2D35",
"[.	c #D32C33",
"}.	c #D42C34",
"|.	c #EF3039",
"1.	c #E82F38",
"2.	c #D52C34",
"3.	c #2D1B1D",
"4.	c #AA262B",
"5.	c #862226",
"6.	c #8B2328",
"7.	c #AA272D",
"8.	c #D22C34",
"9.	c #D42D34",
"0.	c #AC272D",
"a.	c #8C2328",
"b.	c #872226",
"c.	c #471E21",
"d.	c #201B1D",
"e.	c #301D1F",
"f.	c #752125",
"g.	c #AE282E",
"h.	c #D02C33",
"i.	c #E42E37",
"j.	c #E52F37",
"k.	c #B0282E",
"l.	c #331D1F",
"m.	c #211B1D",
"n.	c #852226",
"o.	c #D92D35",
"p.	c #A1272D",
"q.	c #652125",
"r.	c #3A1C1F",
"s.	c #882327",
"t.	c #271C1E",
"u.	c #151B1D",
"v.	c #722125",
"w.	c #A3262C",
"x.	c #A4272D",
"y.	c #742125",
"z.	c #481D20",
"A.	c #231C1E",
"B.	c #DE2E36",
"C.	c #B32930",
"D.	c #812429",
"E.	c #4E1E20",
"F.	c #5F1F22",
"G.	c #A7272C",
"H.	c #6F2124",
"I.	c #171B1C",
"J.	c #2B1C1E",
"K.	c #732124",
"L.	c #AE272D",
"M.	c #C62B32",
"N.	c #AF272E",
"O.	c #2D1C1E",
"P.	c #171B1D",
"Q.	c #6C2124",
"R.	c #A5262C",
"S.	c #C32B33",
"T.	c #99262C",
"U.	c #5E1F22",
"V.	c #6C2023",
"W.	c #D22D35",
"X.	c #CE2C33",
"Y.	c #A9272D",
"Z.	c #6D2024",
"`.	c #481D1F",
" +	c #722124",
".+	c #832327",
"++	c #491D20",
"@+	c #231C1D",
"#+	c #6A2024",
"$+	c #A6272C",
"%+	c #CC2B33",
"&+	c #BC2930",
"*+	c #ED3039",
"=+	c #E42F37",
"-+	c #CC2C33",
";+	c #9F262C",
">+	c #6F2024",
",+	c #271C1D",
"'+	c #2E1C1E",
")+	c #341D1F",
"!+	c #241B1D",
"~+	c #9B252B",
"{+	c #CA2B32",
"]+	c #CE2B34",
"^+	c #AB272E",
"/+	c #2C1C1E",
"(+	c #191B1C",
"_+	c #181B1C",
":+	c #151B1C",
"<+	c #251C1D",
"[+	c #692024",
"}+	c #A4262C",
"|+	c #C92B32",
"1+	c #E12E36",
"2+	c #C52A31",
"3+	c #7F2124",
"4+	c #CB2B31",
"5+	c #EA2F38",
"6+	c #ED2F39",
"7+	c #C32A32",
"8+	c #812327",
"9+	c #321D1F",
"0+	c #121B1C",
"a+	c #7A2226",
"b+	c #BD2A31",
"c+	c #E92F38",
"d+	c #CA2A31",
"e+	c #812227",
"f+	c #331C1F",
"g+	c #131B1C",
"h+	c #7D2226",
"i+	c #C02A31",
"j+	c #E02E37",
"k+	c #C92A31",
"l+	c #7E2024",
"m+	c #AD272D",
"n+	c #712024",
"o+	c #2A1C1D",
"p+	c #6E2024",
"q+	c #E52E37",
"r+	c #C42A31",
"s+	c #7B2024",
"t+	c #CF2C33",
"u+	c #A2262C",
"v+	c #311D1F",
"w+	c #451D1F",
"x+	c #A0262C",
"y+	c #E62E38",
"z+	c #BA2930",
"A+	c #742024",
"B+	c #702124",
"C+	c #802327",
"D+	c #291C1E",
"E+	c #D02B34",
"F+	c #441D1F",
"G+	c #702125",
"H+	c #431D1F",
"I+	c #712125",
"J+	c #A8262D",
"K+	c #892328",
"L+	c #101B1D",
"M+	c #A1262C",
"N+	c #E22E38",
"O+	c #0F1B1D",
"P+	c #1D1B1D",
"Q+	c #1C1B1D",
"R+	c #642125",
"S+	c #8F2429",
"T+	c #7D2126",
"U+	c #661F22",
"V+	c #A5272D",
"W+	c #AB282E",
"X+	c #441E21",
"Y+	c #6E2124",
"Z+	c #6A2125",
"`+	c #CC2C34",
" @	c #752226",
".@	c #D12C35",
"+@	c #AC272E",
"@@	c #6B1F23",
"#@	c #7C2024",
"$@	c #091A1B",
"%@	c #011A1B",
"                                                                                      ",
". . . . . . . . . . . . . . . . . . . . . . . . . . . . . . . . . . . . . . . . . . . ",
"+ + + + + + + + + + + + + + + + + + + + + + + + + + + + + + + + + + + + + + + + + + + ",
"@ @ @ @ @ @ @ @ @ @ @ @ @ @ @ @ @ @ @ @ @ @ @ @ @ @ @ @ @ @ @ @ @ @ @ @ @ @ @ @ @ @ @ ",
"                                                                                      ",
"                                                                                      ",
"                        # $ % & * = - - - - - - = * & % $ #                           ",
"                                                                                      ",
"                  $ ; *   > , ' ) ! ~ { ] ] { ~ ! ) ' , ^   * ; $                     ",
"                      / ( _ : < [ } | 1 2 2 1 | } [ < : 3 ( /                         ",
"            $ % 4 5 6 7 8 9 0 a b c d e f f e d c b a 0 9 g h i ^ 4 % $               ",
"            $   j k l m n o p q r s t u v v u t s r q p w x m y z A   $               ",
"        B % C D E F G H I J K K K K K K K K K K K K K K J L M G N E O C % B           ",
"        % P Q R [ S T U V v W W W K K K K K K K K W W W v J U X Y Z ` D  .%           ",
"    $ $ C Q ..+.@.r K W K K K K K K K K K K K K K K K K K K W K r #.+.$.%.&.$ $       ",
"    %   D R +.*.r V W W K K K K K K K K K K K K K K K K K K W W V r =.-.;.>.  %       ",
"    4 j E [ @.r K W K K K K K K K K K K K K K K K K K K K K K K W K I #.,.'.A 4       ",
"$   5 k F S r V W K K K K K K K K K K K K K K K K K K K K K K K K W V I Y ).!.~.  $   ",
";   i {.G T K W K K K K K W W W W K K K K K K K K W W W W K K K K K W K ].G ^.6   ;   ",
"* / h m H U W W K K K K K K K K K K K K K K K K K K K K K K K K K K W W /.(._.7 / *   ",
"  ( g x L J K K K K K K :.<.[.}.X /.u v K K K |.1.X 2.[.<.:.K K K K K K V I n 8 3.#   ",
"> _ 9 o J v K K K K W K <.4.5.6.7.8./.u K K |.1.9.0.a.b.4.<.K W K K K K v J o 9 c.^   ",
", : 0 p K W K K K K W K [.5.d.e.f.g.h.i.u u j.8.k.^.l.m.n.[.K W K K K K W K o.p.q.r.  ",
"' < a q K W K K K K W K }.s.t.u.i v.w.h.j.j.o x.y.z.u.A.s.}.K W K K K K W K B.C.D.E.  ",
"F.[ b r K W K K K K W K <.G.H.Q I.J.K.L.M.M.N.y.O.P.%.Q.R.<.K W K K K K W K r S.T.U.  ",
"V.} W.1.K K K K K K K K U X.Y.Z.5 I.`. +.+.+v.++P @+#+$+%+U K K K K K K K K s W.G !   ",
"~ &+B.t K K K K K K K K *+=+-+;+>+i ,+'+)+)+O.!+Q #+~+{+r V K K K K K K K K t d | ~   ",
"{ 1 U u K K K K K K K K v *+r ]+^+../+(+_+_+:+<+[+}+|+1+V v K K K K K K K K u U 2+{   ",
"3+4+5+v K K K K K K K K K K 6+r 7+8+9+I.# # 0+J.a+b+B.f K K K K K K K K K K |.c+d+3+  ",
"3+4+5+v K K K K K K K K K K *+i.Y e+f+_+# $ g+O.h+i+j+J K K K K K K K K K K |.c+k+l+  ",
"{ 1 U u K K K K K K K K v u i.h.m+n+'+_+P P P o+p+Y.M r u v K K K K K K K K u q+r+s+  ",
"~ &+B.t K K K K K K K K u U t+u+ +`.> J.v+v+J.~.w+H.x+]+y+u K K K K K K K K f d z+A+  ",
"V.} W.1.K K K K K K K K /.o 0.B+J._+i ..C+C+..i I.D+..^+E+/.K K K K K K K K s W.G !   ",
"F.[ b r K W K K K K W K <.Y.v.F+_+D+G+^+7+7+^+G+D+I.H+I+J+<.K W K K K K W K r S.T.U.  ",
"' < a q K W K K K K W K }.K+D+L+H+..M+]+N+N+]+M+..H+O+t.K+}.K W K K K K W K B.C.D.E.  ",
", : 0 p K W K K K K W K [.5.P+t.I+^+]+r 6+6+r ]+^+I+t.Q+5.[.K W K K K K W K o.p.R+r.  ",
"^ 3 9 w J v K K K K W K <.4.5.K+J+E+y+u K K u y+E+J+K+5.4.<.K W K K K K v J o S+c.~.  ",
"  3.T+x L J K K K K K K :.<.[.}.<./.u v K K v u /.<.}.[.<.:.K K K K K K V I n g 3.#   ",
"* / U+V+-+U W W K K K K K K K K K K K K K K K K K K K K K K K K K K W W U H m h / *   ",
"; # i y W+X K W K K K K K W W W W K K K K K K K K W W W W K K K K K W K ].W+y i   ;   ",
"$   ^ z N Y r V W K K K K K K K K K K K K K K K K K K K K K K K K W V I Y ).X+~.  #   ",
"    4 A E Z #.r K W K K K K K K K K K K K K K K K K K K K K K K W K I #.,.'.>  .      ",
"    %   O ` +.=.I V W W K K K K K K K K K K K K K K K K K K W W V I =.-.;.>.  %       ",
"    $ $ C D Y+-.#.I K W K K K K K K K K K K K K K K K K K K W K I #.-.$.%.&.# $       ",
"        %  .D Z+Z Y ].U J v W W W K K K K K K K K W W W v J U ].Y ,.;.%. .%           ",
"        B % C >.E ).W+`+L J K K K K K K K K K K K K K K J L `+W+).'.>.&.% B           ",
"            $   A !.y V+x w o.B.r s f u v v u f s r B.o.w x V+ @X+>   #               ",
"            $ % 4 ~.i U+T+S+p.C.S..@d j.5+5+j.d .@S.C.p.S+T+U+i ~. .% $               ",
"                    # / 3.c.q.D.T.+@z+2+4+4+2+z++@T.D.R+c.3./                         ",
"                  $ ; *   ^ r.E.U.@@A+#@3+3+#@A+@@U.E.r.~.# * ; #                     ",
"                                                                                      ",
"                        # $ % & $@= %@- - - - %@= $@& % $ #                           ",
"                                                                                      ",
"                                                                                      ",
"                                                                                      ",
"                                                                                      ",
"                                                                                      ",
"                                                                                      "};
