/* XPM */
static char * close_active_xpm[] = {
"43 58 33 1",
" 	c #141A1B",
".	c #181B1C",
"+	c #221F20",
"@	c #242021",
"#	c #502E30",
"$	c #522E31",
"%	c #5F3236",
"&	c #673539",
"*	c #5C3234",
"=	c #161B1C",
"-	c #2B3031",
";	c #593034",
">	c #72393C",
",	c #743A3E",
"'	c #A84B50",
")	c #AA4C50",
"!	c #231F21",
"~	c #743A3D",
"{	c #AA4C51",
"]	c #C1545A",
"^	c #C25359",
"/	c #C4545A",
"(	c #6C373A",
"_	c #C9565C",
":	c #CB575D",
"<	c #6F383C",
"[	c #CC575D",
"}	c #CA565C",
"|	c #C3545A",
"1	c #C35459",
"2	c #A94B50",
"3	c #69363A",
"4	c #71393C",
"                                           ",
"                                           ",
"                                           ",
"...........................................",
"                                           ",
"                                           ",
"                                           ",
"                                           ",
"                                           ",
"                                           ",
"                                           ",
"                                           ",
"                                           ",
"                                           ",
"              +@#$%&&&&*$#@+               ",
"            =+-;>,''))'',>;-+=             ",
"          =!#%~,'{]^//^]{',~%#+=           ",
"          !#('{]]^/_::_/^]]{'(#!           ",
"        =!#<']_:[[[[[[[[[[:_]'<#!=         ",
"        !#<']/:[[[[[[[[[[[[:/]'<#+         ",
"       =#(']:[:::[[[[[[[[::[[:]'(#=        ",
"       +%']/[[}//}[[[[[[}__}[[/{'%.        ",
"      +-~{_:[[|{){^_[[_^{){1[[:_{~-+       ",
"      @;,]:[[[^,<,'^}}]',<,^[[[}],;@       ",
"      #>'][[[[{~##~'{{'~##~{[[[[]'>#       ",
"      $,{^[[[[],$-#>,,>#-#,][[[[^{,$       ",
"      *']/[[[[^',;######$,'][[[[/]'*       ",
"      &'^_[[[[_^',$-@@-#,']_[[[[_^'&       ",
"      &2/:[[[[[[],;@  @$,][[[[[[:/2&       ",
"      &2/:[[[[[:],$@  @#,{:[[[[[}/2&       ",
"      &'^_[[[[_^'>##---#<']_[[[[_^'&       ",
"      *']/[[[[^'~##;%%;##>'^[[[[/]'*       ",
"      $,{^[[[[{,##;,'',;##,{[[[[^{,$       ",
"      #>'][[[[{~#;,2]]2,;#~{[[[[]'>#       ",
"      @;,]:[[[^'~,'^[[^',~'^[[[:{,;@       ",
"      +-~{_:[[/^{]]_[[_]]{^/[[:/{~-+       ",
"       +%']/[[[[[[[[[[[[[[[[[[/{'%.        ",
"       =#(']:[[[[[[[[[[[[[[[[:]'3#=        ",
"        +#<']/:[[[[[[[[[[[[:/]'<#+         ",
"        =!#<'{_}[[[[[[[[[[:/{'<#+=         ",
"          !#('{]]^/_::_/^]{{'3#+           ",
"          =+#%~,'{]^//^]{',~%#+=           ",
"            =.-;>,''22'',4;-.=             ",
"              +@#$*&&&&*$#@+               ",
"                                           ",
"                                           ",
"                                           ",
"                                           ",
"                                           ",
"                                           ",
"                                           ",
"                                           ",
"                                           ",
"                                           ",
"                                           ",
"                                           ",
"                                           ",
"                                           "};
