/* XPM */
static char * close_prelight_xpm[] = {
"43 58 116 2",
"  	c #141A1B",
". 	c #273336",
"+ 	c #2A3639",
"@ 	c #2C393B",
"# 	c #2D3A3C",
"$ 	c #2A3638",
"% 	c #2D3A3D",
"& 	c #303E41",
"* 	c #324044",
"= 	c #344246",
"- 	c #354447",
"; 	c #293538",
"> 	c #2F3C3F",
", 	c #323F42",
"' 	c #334144",
") 	c #364548",
"! 	c #354346",
"~ 	c #2B383A",
"{ 	c #344346",
"] 	c #313F42",
"^ 	c #263234",
"/ 	c #2F3D3F",
"( 	c #344345",
"_ 	c #1A2223",
": 	c #344245",
"< 	c #2B373A",
"[ 	c #918F8F",
"} 	c #C4BEBD",
"| 	c #C5BFBE",
"1 	c #BFB9B8",
"2 	c #BAB3B2",
"3 	c #C5BEBD",
"4 	c #9F9C9B",
"5 	c #334043",
"6 	c #C2BCBB",
"7 	c #D0CAC9",
"8 	c #D3CDCC",
"9 	c #CDC7C6",
"0 	c #C1BBBA",
"a 	c #CDC6C5",
"b 	c #D3CCCB",
"c 	c #C3BDBC",
"d 	c #364447",
"e 	c #2A3538",
"f 	c #D1CBCA",
"g 	c #D8D2D1",
"h 	c #D6D0CF",
"i 	c #CDC8C7",
"j 	c #495254",
"k 	c #D9D2D1",
"l 	c #D2CBCA",
"m 	c #283336",
"n 	c #A09C9B",
"o 	c #CAC4C3",
"p 	c #D4CECD",
"q 	c #D8D3D2",
"r 	c #8D8D8D",
"s 	c #D1CBC9",
"t 	c #D9D3D2",
"u 	c #D5CECD",
"v 	c #CCC5C4",
"w 	c #ADA8A7",
"x 	c #CBC5C4",
"y 	c #D5CFCE",
"z 	c #DAD4D3",
"A 	c #DBD5D4",
"B 	c #CCC5C5",
"C 	c #C0B9B9",
"D 	c #C1BAB9",
"E 	c #CEC7C6",
"F 	c #DFD9D8",
"G 	c #E4DEDD",
"H 	c #E0DAD9",
"I 	c #CFC8C8",
"J 	c #C2BBBB",
"K 	c #A9A6A5",
"L 	c #E2DCDB",
"M 	c #E8E2E1",
"N 	c #E3DDDC",
"O 	c #404C4E",
"P 	c #636869",
"Q 	c #E4DDDD",
"R 	c #DBD4D4",
"S 	c #CEC7C7",
"T 	c #2D393C",
"U 	c #E1DBDA",
"V 	c #E0D9D9",
"W 	c #D2CBCB",
"X 	c #C5BEBE",
"Y 	c #575E5F",
"Z 	c #2C383B",
"` 	c #334044",
" .	c #D7D1D0",
"..	c #D7D0D0",
"+.	c #CEC8C7",
"@.	c #C3BCBC",
"#.	c #324043",
"$.	c #B9B3B2",
"%.	c #CCC6C5",
"&.	c #D5D0CE",
"*.	c #979494",
"=.	c #D6D0CE",
"-.	c #CDC7C5",
";.	c #BFB8B8",
">.	c #303D40",
",.	c #D2CDCC",
"'.	c #C9C4C3",
").	c #C0B9B8",
"!.	c #646869",
"~.	c #CFC9C8",
"{.	c #C9C3C2",
"].	c #6F7171",
"^.	c #354446",
"/.	c #39474A",
"(.	c #263134",
"_.	c #424D50",
"                                                                                      ",
"                                                                                      ",
"                                                                                      ",
"                                                                                      ",
"                                                                                      ",
"                                                                                      ",
"                                                                                      ",
"                                                                                      ",
"                                                                                      ",
"                                                                                      ",
"                                                                                      ",
"                                  . + @ # # @ + .                                     ",
"                              $ % & * = - - = * & % $                                 ",
"                        ; > , ' - ) ) ) ) ) ) ) ) ! ' , > ;                           ",
"                      ~ ' - ) ) ) ) ) ) ) ) ) ) ) ) ) ) { ] ~                         ",
"                  ^ / { ) ) ) ) ) ) ) ) ) ) ) ) ) ) ) ) ) ) ( / _                     ",
"                ^ / ( ) ) ) ) ) ) ) ) ) ) ) ) ) ) ) ) ) ) ) ) - / ^                   ",
"              ^ / ! ) ) ) ) ) ) ) ) ) ) ) ) ) ) ) ) ) ) ) ) ) ) ! > _                 ",
"              / ( ) ) ) ) ) ) ) ) ) ) ) ) ) ) ) ) ) ) ) ) ) ) ) ) : >                 ",
"            ~ ( ) ) ) ) ) ) ) ) ) ) ) ) ) ) ) ) ) ) ) ) ) ) ) ) ) ) : <               ",
"          ; ] ) ) ) ) ) ) ) ) ) ) ) ) ) ) ) ) ) ) ) ) ) ) ) ) ) ) ) ) ] ;             ",
"          > - ) ) ) ) ) ) ) ) ) ) ) ) ) ) ) ) ) ) ) ) ) ) ) ) ) ) ) ) ) >             ",
"          , ) ) ) ) ) ) ) ) [ } | 1 ) ) ) ) ) ) 2 3 } 4 ) ) ) ) ) ) ) ) 5             ",
"        $ ' ) ) ) ) ) ) ) ) 6 7 8 9 6 ) ) ) ) 0 a b 7 c ) ) ) ) ) ) ) ) d e           ",
"        % ! ) ) ) ) ) ) ) ) 6 f g h i } j ) c 9 h k l c ) ) ) ) ) ) ) ) ) %           ",
"      m { ) ) ) ) ) ) ) ) ) n o p q h f r r s h t u v w ) ) ) ) ) ) ) ) ) * .         ",
"      + ! ) ) ) ) ) ) ) ) ) ) 1 x y t z A A z z y B C ) ) ) ) ) ) ) ) ) ) * +         ",
"      @ - ) ) ) ) ) ) ) ) ) ) ) D E g F G G H t I J ) ) ) ) ) ) ) ) ) ) ) = @         ",
"      # ) ) ) ) ) ) ) ) ) ) ) ) ) K g L M M N t ) ) ) ) ) ) ) ) ) ) ) ) ) ! #         ",
"      # ) ) ) ) ) ) ) ) ) ) ) ) O P t N M M Q R S ) ) ) ) ) ) ) ) ) ) ) ) ! T         ",
"      @ = ) ) ) ) ) ) ) ) ) ) ) c 7 z F U U V A W X Y ) ) ) ) ) ) ) ) ) ) : Z         ",
"      + ` ) ) ) ) ) ) ) ) ) ) 6 9 h t  .y y  .t ..+.@.) ) ) ) ) ) ) ) ) ) #.+         ",
"      m & ) ) ) ) ) ) ) ) ) $.%.&.g p %.*.*.%.p g =.-.;.) ) ) ) ) ) ) ) ) >.^         ",
"        % ! ) ) ) ) ) ) ) ) c f  .,.'.).!.!.).'.,. .f c ) ) ) ) ) ) ) ) { %           ",
"        $ ' ) ) ) ) ) ) ) ) 6 +.~.{.$.) ) ) ) $.{.~.+.6 ) ) ) ) ) ) ) ) ' e           ",
"          , ) ) ) ) ) ) ) ) ].0 0 4 ) ) ) ) ) ) 4 0 0 ].) ) ) ) ) ) ) ) ,             ",
"          > ) ) ) ) ) ) ) ) ) ) ) ) ) ) ) ) ) ) ) ) ) ) ) ) ) ) ) ) ) { >             ",
"          ; ] ) ) ) ) ) ) ) ) ) ) ) ) ) ) ) ) ) ) ) ) ) ) ) ) ) ) ) ) ] ;             ",
"            ~ { ) ) ) ) ) ) ) ) ) ) ) ) ) ) ) ) ) ) ) ) ) ) ) ) ) ) - <               ",
"              / ( ) ) ) ) ) ) ) ) ) ) ) ) ) ) ) ) ) ) ) ) ) ) ) ) ) >                 ",
"              _ ^.) ) ) ) ) ) ) ) ) ) ) ) ) ) ) ) ) ) ) ) ) /.) ) > (.                ",
"                + #.! ) ) ) ) ) ) ) ) ) ) ) ) ) ) ) ) ) ) /.) ) > ^                   ",
"                  _ > ! ) ) ) ) ) ) ) ) ) ) ) ) ) ) ) ) ) ) d > _                     ",
"                      > ) ) ) ) _.) ) ) ) ) ) ) ) ) ) ) - : <                         ",
"                        ; > , : ) ) ) ) ) ) ) ) ) ) ) ' > ;                           ",
"                              e % >.#.: - - ) ) ) ) d                                 ",
"                                  ^ + @ # # @ + ^                                     ",
"                                                                                      ",
"                                                                                      ",
"                                                                                      ",
"                                                                                      ",
"                                                                                      ",
"                                                                                      ",
"                                                                                      ",
"                                                                                      ",
"                                                                                      ",
"                                                                                      ",
"                                                                                      "};
