/* XPM */
static char * hide_pressed_xpm[] = {
"43 58 171 2",
"  	c #141A1B",
". 	c #161C1D",
"+ 	c #13191A",
"@ 	c #14191B",
"# 	c #14181A",
"$ 	c #141618",
"% 	c #141317",
"& 	c #131015",
"* 	c #130D13",
"= 	c #130A12",
"- 	c #130911",
"; 	c #14191A",
"> 	c #151D1E",
", 	c #152524",
"' 	c #17302C",
") 	c #183A34",
"! 	c #18423A",
"~ 	c #19493F",
"{ 	c #1A4D42",
"] 	c #1A4F44",
"^ 	c #183A33",
"/ 	c #151D1D",
"( 	c #162826",
"_ 	c #1A3E38",
": 	c #1D554B",
"< 	c #206A5B",
"[ 	c #237A68",
"} 	c #258672",
"| 	c #268E79",
"1 	c #27927C",
"2 	c #1D554A",
"3 	c #1A3D37",
"4 	c #162726",
"5 	c #152221",
"6 	c #173731",
"7 	c #1B4F45",
"8 	c #1E6255",
"9 	c #227262",
"0 	c #25806E",
"a 	c #278E79",
"b 	c #2A9A83",
"c 	c #2BA48B",
"d 	c #2DAB91",
"e 	c #2DAE94",
"f 	c #227162",
"g 	c #183731",
"h 	c #152523",
"i 	c #1E5C50",
"j 	c #25816F",
"k 	c #299781",
"l 	c #2BA28A",
"m 	c #2CA78E",
"n 	c #2CAA91",
"o 	c #2DAD93",
"p 	c #2DAF95",
"q 	c #2EB196",
"r 	c #2EB297",
"s 	c #193A34",
"t 	c #141719",
"u 	c #141C1C",
"v 	c #17312D",
"w 	c #1B4E44",
"x 	c #206E5E",
"y 	c #268975",
"z 	c #2A9F88",
"A 	c #2DAC93",
"B 	c #2EB499",
"C 	c #2EB498",
"D 	c #2EB398",
"E 	c #2DAC92",
"F 	c #2B9F87",
"G 	c #216E5E",
"H 	c #162D29",
"I 	c #1C5147",
"J 	c #227564",
"K 	c #299881",
"L 	c #2CAB92",
"M 	c #2DB095",
"N 	c #1C5146",
"O 	c #162C29",
"P 	c #141B1C",
"Q 	c #237967",
"R 	c #2CAB91",
"S 	c #237867",
"T 	c #1C5046",
"U 	c #227364",
"V 	c #1B4D43",
"W 	c #206D5E",
"X 	c #183834",
"Y 	c #152121",
"Z 	c #268875",
"` 	c #1E5B50",
" .	c #173631",
"..	c #2A9F87",
"+.	c #25826F",
"@.	c #1B5045",
"#.	c #141D1D",
"$.	c #217162",
"%.	c #193D37",
"&.	c #25806F",
"*.	c #24806E",
"=.	c #1D544A",
"-.	c #162F2C",
";.	c #206A5C",
">.	c #278E7A",
",.	c #278D79",
"'.	c #20685B",
").	c #18433A",
"!.	c #237A69",
"~.	c #2A9B84",
"{.	c #28B297",
"].	c #1BB195",
"^.	c #14B195",
"/.	c #15B195",
"(.	c #237968",
"_.	c #258773",
":.	c #2BA48C",
"<.	c #2DB398",
"[.	c #4BB79E",
"}.	c #69BEA9",
"|.	c #72C1AC",
"1.	c #71C0AC",
"2.	c #1A4D43",
"3.	c #268F79",
"4.	c #2AB397",
"5.	c #82C5B3",
"6.	c #C5E1D8",
"7.	c #D7E9E4",
"8.	c #D5E9E3",
"9.	c #2CB398",
"0.	c #9ACEBF",
"a.	c #ECF4F2",
"b.	c #FFFFFF",
"c.	c #26917C",
"d.	c #2CA990",
"e.	c #268D78",
"f.	c #194C42",
"g.	c #130B12",
"h.	c #2BA38B",
"i.	c #258571",
"j.	c #19483F",
"k.	c #299983",
"l.	c #131115",
"m.	c #2CAA90",
"n.	c #20685A",
"o.	c #173933",
"p.	c #141417",
"q.	c #247F6D",
"r.	c #1C5349",
"s.	c #162F2B",
"t.	c #227161",
"u.	c #217161",
"v.	c #193C37",
"w.	c #1E6254",
"x.	c #2A9E88",
"y.	c #1E5B4F",
"z.	c #183833",
"A.	c #1B4C43",
"B.	c #152423",
"C.	c #237767",
"D.	c #1C4F46",
"E.	c #227464",
"F.	c #17312C",
"G.	c #2A9E87",
"H.	c #268874",
"I.	c #2A9983",
"J.	c #2DAA91",
"K.	c #247F6E",
"L.	c #1D534A",
"M.	c #162725",
"N.	c #183933",
"                                                                                      ",
"                                                                                      ",
"                                                                                      ",
"                                                                                      ",
"                                                                                      ",
"                                                                                      ",
". . . . . . . . . . . . . . . . . . . . . . . . . . . . . . . . . . . . . . . . . . . ",
"+ + + + + + + + + + + + + + + + + + + + + + + + + + + + + + + + + + + + + + + + + + + ",
"                                                                                      ",
"                          @ # $ % & * = - - = * & % $ # @                             ",
"                      @ ; > , ' ) ! ~ { ] ] { ~ ! ^ ' , / ; @                         ",
"                      # # ( _ : < [ } | 1 1 | } [ < 2 3 4 # #                         ",
"                #   5 6 7 8 9 0 a b c d e e d c b a 0 f 8 7 g 5   #                   ",
"                  h ) i j k l m n o p q r r q p o n m l k j i s h                     ",
"            t u v w x y z A r B B C D D D D D D C B B r E F y G w v u t               ",
"            u H I J K L M r D D D D D D D D D D D D D D r M L K J N O P               ",
"        #   v I Q k R B B D D D D D D D D D D D D D D D D B B R k S T '   #           ",
"          h w J k e D D D D D D D D D D D D D D D D D D D D D D e k U V h             ",
"        5 ) x K R D B D D D D D D D D D D D D D D D D D D D D B D n k W X Y           ",
"    @ # 6 i y L B D D D D D D D D D D D D D D D D D D D D D D D D B L Z `  .# @       ",
"    ; # 7 j ..M B D D D D D D D D D D D D D D D D D D D D D D D D B M ..+.@.# ;       ",
"  @ > ( 8 k E r D D D D D D D D D D D D D D D D D D D D D D D D D D r E k 8 ( #.@     ",
"  # , _ 9 l r D D D D D D D D D D D D D D D D D D D D D D D D D D D D r l $.%., #     ",
"  $ ' : &.m B D D D D D D D D D D D D D D D D D D D D D D D D D D D D B m *.=.-.$     ",
"  % ) ;.>.n B D D D D D D D D D D D D D D D D D D D D D D D D D D D D B n ,.'.^ %     ",
"  & ).!.~.o C D D D D D D {.].^././././././././././.^.].{.D D D D D D C o b (.! &     ",
"  * ~ _.:.p D D D D D <.D [.}.|.1.1.1.1.1.1.1.1.1.1.|.}.[.D <.D D D D D p c } ~ *     ",
"  = 2.3.d q D D D D D 4.<.5.6.7.8.8.8.8.8.8.8.8.8.8.7.6.5.<.4.D D D D D q d | { =     ",
"  - ] 1 e r D D D D D {.9.0.a.b.b.b.b.b.b.b.b.b.b.b.b.a.0.9.{.D D D D D r e 1 ] -     ",
"  - ] 1 e r D D D D D {.9.0.a.b.b.b.b.b.b.b.b.b.b.b.b.a.0.9.{.D D D D D r o c.] -     ",
"  = { | d q D D D D D 4.<.5.6.7.8.8.8.8.8.8.8.8.8.8.7.6.5.<.4.D D D D D q d.e.f.g.    ",
"  * ~ } c p D D D D D <.D [.}.|.1.1.1.1.1.1.1.1.1.1.|.}.[.D <.D D D D D p h.i.j.*     ",
"  & ! [ b o C D D D D D D {.].^././././././././././.^.].{.D D D D D D C o k.S ! l.    ",
"  % ^ < a n B D D D D D D D D D D D D D D D D D D D D D D D D D D D D B m.,.n.o.p.    ",
"  $ ' 2 0 m B D D D D D D D D D D D D D D D D D D D D D D D D D D D D B m q.r.s.$     ",
"  # , 3 t.l r D D D D D D D D D D D D D D D D D D D D D D D D D D D D r l u.v.h #     ",
"  @ / 4 w.k E r D D D D D D D D D D D D D D D D D D D D D D D D D D r A k 8 4 #.@     ",
"    ; # 7 j F M B D D D D D D D D D D D D D D D D D D D D D D D D B M x.j 7 # ;       ",
"    ; # g i y L B D D D D D D D D D D D D D D D D D D D D D D D D B L Z y. .; @       ",
"        5 s G K R D B D D D D D D D D D D D D D D D D D D D D B D n k W z.Y           ",
"          h w J k e D D D D D D D D D D D D D D D D D D D D D D e k U A.B.            ",
"        #   v N S k n B B D D D D D D D D D D D D D D D D B B n k C.D.'   #           ",
"            P O T E.k L M r D D D D D D D D D D D D D D r M L k U T O P               ",
"            t P F.V W Z G.E r B B C D D D D D D C B B r E G.H.W V ' P t               ",
"                  h X ` j k l m n o p q r r q p o n m l k j y.z.B.                    ",
"                #   Y  .7 w.u.*.,.I.h.J.e e J.h.I.,.K.u.w.7  .Y   #                   ",
"                      ; # ( %.=.'.(.i.| 1 1 | i.(.'.L.v.M.# ;                         ",
"                      ; ; #., -.N.! j.{ ] ] { j.! N.s.h #.; ;                         ",
"                          @ # $ % & * = - - = * & % $ # @                             ",
"                                                                                      ",
"                                                                                      ",
"                                                                                      ",
"                                                                                      ",
"                                                                                      ",
"                                                                                      ",
"                                                                                      ",
"                                                                                      ",
"                                                                                      "};
