/* XPM */
static char * hide_prelight_xpm[] = {
"43 58 54 1",
" 	c #141A1B",
".	c #273336",
"+	c #2A3639",
"@	c #2C393B",
"#	c #2D3A3C",
"$	c #2A3638",
"%	c #2D3A3D",
"&	c #303E41",
"*	c #324044",
"=	c #344246",
"-	c #354447",
";	c #293538",
">	c #2F3C3F",
",	c #323F42",
"'	c #334144",
")	c #344245",
"!	c #344346",
"~	c #354448",
"{	c #364548",
"]	c #2B383A",
"^	c #313F42",
"/	c #263234",
"(	c #2F3D3F",
"_	c #344345",
":	c #1A2223",
"<	c #354346",
"[	c #2B373A",
"}	c #2A3538",
"|	c #283336",
"1	c #334346",
"2	c #2F4043",
"3	c #2D3E41",
"4	c #2D3F42",
"5	c #303D41",
"6	c #334044",
"7	c #455154",
"8	c #586164",
"9	c #5E666A",
"0	c #5D6669",
"a	c #364448",
"b	c #344447",
"c	c #697073",
"d	c #999DA1",
"e	c #A6AAAE",
"f	c #A5A9AD",
"g	c #7A8084",
"h	c #B6B9BE",
"i	c #C6C9CE",
"j	c #C4C7CC",
"k	c #2D393C",
"l	c #2C383B",
"m	c #324043",
"n	c #303D40",
"o	c #263134",
"                                           ",
"                                           ",
"                                           ",
"                                           ",
"                                           ",
"                                           ",
"                                           ",
"                                           ",
"                                           ",
"                                           ",
"                                           ",
"                 .+@##@+.                  ",
"               $%&*=--=*&%$                ",
"            ;>,')!-~{{~-!)',>;             ",
"           ]^!{{{{{{{{{{{{{{!^]            ",
"         /(_-{{{{{{{{{{{{{{{{-_(:          ",
"        /(_{{{{{{{{{{{{{{{{{{{{_(/         ",
"       /(<{{{{{{{{{{{{{{{{{{{{{{<>:        ",
"       (_{{{{{{{{{{{{{{{{{{{{{{{{)>        ",
"      ]_{{{{{{{{{{{{{{{{{{{{{{{{{{)[       ",
"     ;^-{{{{{{{{{{{{{{{{{{{{{{{{{{-^;      ",
"     >!{{{{{{{{{{{{{{{{{{{{{{{{{{{{!>      ",
"     ,{{{{{{{{{{{{{{{{{{{{{{{{{{{{{{,      ",
"    $'{{{{{{{{{{{{{{{{{{{{{{{{{{{{{{'}     ",
"    %){{{{{{{{{{{{{{{{{{{{{{{{{{{{{{)%     ",
"   |&<{{{{{{{1234444444444321{{{{{{{!5.    ",
"   +6-{{{{{{{7890000000000987{{{{{{{-*+    ",
"   @=a{{{{{b{cdeffffffffffedc{b{{{{{~=@    ",
"   #-{{{{{{1-ghijjjjjjjjjjihg-1{{{{{{<#    ",
"   #-{{{{{{1-ghijjjjjjjjjjihg-1{{{{{{<k    ",
"   @=a{{{{{b{cdeffffffffffedc{b{{{{{-)l    ",
"   +6-{{{{{{{7890000000000987{{{{{{{-m+    ",
"   |&<{{{{{{{1234444444444321{{{{{{{!n/    ",
"    %){{{{{{{{{{{{{{{{{{{{{{{{{{{{{{)%     ",
"    $'{{{{{{{{{{{{{{{{{{{{{{{{{{{{{{'}     ",
"     ,{{{{{{{{{{{{{{{{{{{{{{{{{{{{{{,      ",
"     >!{{{{{{{{{{{{{{{{{{{{{{{{{{{{!>      ",
"     ;^-{{{{{{{{{{{{{{{{{{{{{{{{{{-^;      ",
"      ]_{{{{{{{{{{{{{{{{{{{{{{{{{{)[       ",
"       (_{{{{{{{{{{{{{{{{{{{{{{{{)>        ",
"       :(<{{{{{{{{{{{{{{{{{{{{{{<>o        ",
"        />){{{{{{{{{{{{{{{{{{{{)>/         ",
"         :>)-{{{{{{{{{{{{{{{{-)>:          ",
"           [^!{{{{{{{{{{{{{{!^[            ",
"            ;>,')!--{{--!)',>;             ",
"               }%nm)--)mn%}                ",
"                 /+@##@+/                  ",
"                                           ",
"                                           ",
"                                           ",
"                                           ",
"                                           ",
"                                           ",
"                                           ",
"                                           ",
"                                           ",
"                                           ",
"                                           "};
