/* XPM */
static char * hide_active_xpm[] = {
"43 58 123 2",
"  	c #141A1B",
". 	c #181B1C",
"+ 	c #151C1B",
"@ 	c #141B1B",
"# 	c #221F20",
"$ 	c #282621",
"% 	c #574132",
"& 	c #615635",
"* 	c #6F683B",
"= 	c #79703E",
"- 	c #847F3F",
"; 	c #79793F",
"> 	c #6D6839",
", 	c #626036",
"' 	c #574933",
") 	c #292C22",
"! 	c #161B1C",
"~ 	c #272520",
"{ 	c #424B33",
"] 	c #94893A",
"^ 	c #D2C036",
"/ 	c #EED32B",
"( 	c #F3D528",
"_ 	c #F5D626",
": 	c #D2C135",
"< 	c #95903C",
"[ 	c #465D37",
"} 	c #282B22",
"| 	c #231F21",
"1 	c #553A31",
"2 	c #948139",
"3 	c #E8CE2D",
"4 	c #F5D627",
"5 	c #E8CF2D",
"6 	c #948D3E",
"7 	c #564733",
"8 	c #222020",
"9 	c #282521",
"0 	c #5D4B32",
"a 	c #C8B638",
"b 	c #C8BB39",
"c 	c #5E5D36",
"d 	c #292B22",
"e 	c #8B7532",
"f 	c #E7CC2C",
"g 	c #E7CE2D",
"h 	c #8B8136",
"i 	c #8A7332",
"j 	c #8A8036",
"k 	c #574331",
"l 	c #E4C92D",
"m 	c #E4CC2F",
"n 	c #574833",
"o 	c #C1A72E",
"p 	c #C2AF35",
"q 	c #20291E",
"r 	c #7E7433",
"s 	c #F2D328",
"t 	c #F2D429",
"u 	c #808036",
"v 	c #E1C42A",
"w 	c #E1C92D",
"x 	c #876F31",
"y 	c #F2D428",
"z 	c #887534",
"A 	c #BEA32D",
"B 	c #BEAA2E",
"C 	c #E0C329",
"D 	c #E4C727",
"E 	c #9A8834",
"F 	c #978639",
"G 	c #94832F",
"H 	c #958431",
"I 	c #958432",
"J 	c #E1C62C",
"K 	c #E3C42C",
"L 	c #DCC02F",
"M 	c #393D3F",
"N 	c #2E3334",
"O 	c #2B3031",
"P 	c #2C3132",
"Q 	c #E3C92E",
"R 	c #25251B",
"S 	c #F0D128",
"T 	c #DABF2A",
"U 	c #2D3233",
"V 	c #232829",
"W 	c #171D1E",
"X 	c #181D1E",
"Y 	c #F0D229",
"Z 	c #26271B",
"` 	c #F0D228",
" .	c #25261B",
"..	c #E0C52A",
"+.	c #BBA12E",
"@.	c #BCA32E",
"#.	c #766721",
"$.	c #F1D228",
"%.	c #F1D328",
"&.	c #766922",
"*.	c #DEC329",
"=.	c #DEC42A",
"-.	c #756720",
";.	c #74681E",
">.	c #BBA02E",
",.	c #BBA22E",
"'.	c #2D2A20",
").	c #E0C42A",
"!.	c #2D2B20",
"~.	c #E5C629",
"{.	c #E5C829",
"].	c #E4C629",
"^.	c #E4C829",
"/.	c #F3D527",
"(.	c #74661C",
"_.	c #E3C629",
":.	c #F5D527",
"<.	c #E3C829",
"[.	c #C8AC2C",
"}.	c #EDCE28",
"|.	c #F2D427",
"1.	c #C8AE2C",
"2.	c #322F1B",
"                                                                                      ",
"                                                                                      ",
"                                                                                      ",
". . . . . . . . . . . . . . . . . . . . . . . . . . . . . . . . . . . . . . . . . . . ",
"                                                                                      ",
"                                                                                      ",
"                                                                                      ",
"                                                                                      ",
"                                                                                      ",
"                                                                                      ",
"                                                                                      ",
"                                                                                      ",
"                                                                                      ",
"                                        + + @                                         ",
"                            # $ % & * = - - ; > , ' ) #                               ",
"                        ! ~ { ] ^ / ( _ _ _ _ ( / : < [ } !                           ",
"                    ! | 1 2 3 4 _ _ _ _ _ _ _ _ _ _ 4 5 6 7 8 !                       ",
"                    9 0 a ( _ _ _ _ _ _ _ _ _ _ _ _ _ _ ( b c d                       ",
"                ! 9 e f _ _ _ _ _ _ _ _ _ _ _ _ _ _ _ _ _ _ g h d !                   ",
"                | i f _ _ _ _ _ _ _ _ _ _ _ _ _ _ _ _ _ _ _ _ g j 8                   ",
"              ! k l _ _ _ _ _ _ _ _ _ _ _ _ _ _ _ _ _ _ _ _ _ _ m n !                 ",
"              ~ o _ _ _ _ _ _ _ _ _ _ _ _ _ _ _ _ _ _ _ _ _ _ _ _ p q                 ",
"            # r s _ _ _ _ _ _ _ _ _ _ _ _ _ _ _ _ _ _ _ _ _ _ _ _ t u #               ",
"            $ v _ _ _ _ _ _ _ _ _ _ _ _ _ _ _ _ _ _ _ _ _ _ _ _ _ _ w )               ",
"            x s _ _ _ _ _ _ _ _ _ _ _ _ _ _ _ _ _ _ _ _ _ _ _ _ _ _ y z               ",
"            A _ _ _ _ _ _ _ _ _ _ _ _ _ _ _ _ _ _ _ _ _ _ _ _ _ _ _ _ B               ",
"            C _ _ _ _ _ _ _ D E F G H I I I I H G F E D _ _ _ _ _ _ _ J               ",
"            K _ _ _ _ _ _ _ L M N O O P P P P O O N M L _ _ _ _ _ _ _ Q @             ",
"          R S _ _ _ _ _ _ _ T U V W X X X X X X W V U T _ _ _ _ _ _ _ Y Z             ",
"          R S _ _ _ _ _ _ _ T U V W X X X X X X W V U T _ _ _ _ _ _ _ Y Z             ",
"          R S _ _ _ _ _ _ _ L M N O O P P P P O O N M L _ _ _ _ _ _ _ `  .            ",
"            C _ _ _ _ _ _ _ D E F G H I I I I H G F E D _ _ _ _ _ _ _ J               ",
"            C _ _ _ _ _ _ _ _ _ _ _ _ _ _ _ _ _ _ _ _ _ _ _ _ _ _ _ _ ..              ",
"            +.4 _ _ _ _ _ _ _ _ _ _ _ _ _ _ _ _ _ _ _ _ _ _ _ _ _ _ 4 @.              ",
"            #.$._ _ _ _ _ _ _ _ _ _ _ _ _ _ _ _ _ _ _ _ _ _ _ _ _ _ %.&.              ",
"            # *._ _ _ _ _ _ _ _ _ _ _ _ _ _ _ _ _ _ _ _ _ _ _ _ _ _ =.#               ",
"              -.$._ _ _ _ _ _ _ _ _ _ _ _ _ _ _ _ _ _ _ _ _ _ _ _ %.;.                ",
"              ! >.4 _ _ _ _ _ _ _ _ _ _ _ _ _ _ _ _ _ _ _ _ _ _ 4 ,.!                 ",
"                '.C _ _ _ _ _ _ _ _ _ _ _ _ _ _ _ _ _ _ _ _ _ _ ).!.                  ",
"                ! #.~._ _ _ _ _ _ _ _ _ _ _ _ _ _ _ _ _ _ _ _ {.&.!                   ",
"                    #.]._ _ _ _ _ _ _ _ _ _ _ _ _ _ _ _ _ _ ^.&.                      ",
"                    ! '.+./._ _ _ _ _ _ _ _ _ _ _ _ _ _ /.@.!.!                       ",
"                        ! (._.:._ _ _ _ _ _ _ _ _ _ :.<.;.!                           ",
"                            # #.[.}.|.:.4 4 :.|.}.1.&.#                               ",
"                                      R 2.2. .                                        ",
"                                                                                      ",
"                                                                                      ",
"                                                                                      ",
"                                                                                      ",
"                                                                                      ",
"                                                                                      ",
"                                                                                      ",
"                                                                                      ",
"                                                                                      ",
"                                                                                      ",
"                                                                                      ",
"                                                                                      ",
"                                                                                      "};
