/* XPM */
static char * hide_active_xpm[] = {
"43 58 132 2",
"  	c #141A1B",
". 	c #181B1C",
"+ 	c #2A2F30",
"@ 	c #24292A",
"# 	c #1D2324",
"$ 	c #1B2121",
"% 	c #1B2122",
"& 	c #1B2021",
"* 	c #1F2425",
"= 	c #1A1F20",
"- 	c #161B1C",
"; 	c #161C1D",
"> 	c #151C1B",
", 	c #141B1B",
"' 	c #221F20",
") 	c #282621",
"! 	c #574132",
"~ 	c #615635",
"{ 	c #6F683B",
"] 	c #79703E",
"^ 	c #847F3F",
"/ 	c #79793F",
"( 	c #6D6839",
"_ 	c #626036",
": 	c #574933",
"< 	c #292C22",
"[ 	c #272520",
"} 	c #424B33",
"| 	c #94893A",
"1 	c #D2C036",
"2 	c #EED32B",
"3 	c #F3D528",
"4 	c #F5D626",
"5 	c #D2C135",
"6 	c #95903C",
"7 	c #465D37",
"8 	c #282B22",
"9 	c #231F21",
"0 	c #553A31",
"a 	c #948139",
"b 	c #E8CE2D",
"c 	c #F5D627",
"d 	c #E8CF2D",
"e 	c #948D3E",
"f 	c #564733",
"g 	c #222020",
"h 	c #282521",
"i 	c #5D4B32",
"j 	c #C8B638",
"k 	c #C8BB39",
"l 	c #5E5D36",
"m 	c #292B22",
"n 	c #8B7532",
"o 	c #E7CC2C",
"p 	c #E7CE2D",
"q 	c #8B8136",
"r 	c #8A7332",
"s 	c #8A8036",
"t 	c #574331",
"u 	c #E4C92D",
"v 	c #E4CC2F",
"w 	c #574833",
"x 	c #C1A72E",
"y 	c #C2AF35",
"z 	c #20291E",
"A 	c #7E7433",
"B 	c #F2D328",
"C 	c #F2D429",
"D 	c #808036",
"E 	c #E1C42A",
"F 	c #E1C92D",
"G 	c #876F31",
"H 	c #F2D428",
"I 	c #887534",
"J 	c #BEA32D",
"K 	c #BEAA2E",
"L 	c #E0C329",
"M 	c #E4C727",
"N 	c #9A8834",
"O 	c #978639",
"P 	c #94832F",
"Q 	c #958431",
"R 	c #958432",
"S 	c #E1C62C",
"T 	c #E3C42C",
"U 	c #DCC02F",
"V 	c #393D3F",
"W 	c #2E3334",
"X 	c #2B3031",
"Y 	c #2C3132",
"Z 	c #E3C92E",
"` 	c #25251B",
" .	c #F0D128",
"..	c #DABF2A",
"+.	c #2D3233",
"@.	c #232829",
"#.	c #171D1E",
"$.	c #181D1E",
"%.	c #F0D229",
"&.	c #26271B",
"*.	c #F0D228",
"=.	c #25261B",
"-.	c #E0C52A",
";.	c #BBA12E",
">.	c #BCA32E",
",.	c #766721",
"'.	c #F1D228",
").	c #F1D328",
"!.	c #766922",
"~.	c #DEC329",
"{.	c #DEC42A",
"].	c #756720",
"^.	c #74681E",
"/.	c #BBA02E",
"(.	c #BBA22E",
"_.	c #2D2A20",
":.	c #E0C42A",
"<.	c #2D2B20",
"[.	c #E5C629",
"}.	c #E5C829",
"|.	c #E4C629",
"1.	c #E4C829",
"2.	c #F3D527",
"3.	c #74661C",
"4.	c #E3C629",
"5.	c #F5D527",
"6.	c #E3C829",
"7.	c #C8AC2C",
"8.	c #EDCE28",
"9.	c #F2D427",
"0.	c #C8AE2C",
"a.	c #322F1B",
"                                                                                      ",
"                                                                                      ",
"                                                                                      ",
". . . . . . . . . . . . . . . . . . . . . . . . . . . . . . . . . . . . . . . . . . . ",
"+ + + + + + + + + + + + + + + + + + + + + + + + + + + + + + + + + + + + + + + + + + + ",
"@ @ # $ % % % % % % % % % % % % % % % % % % % % % % % % % % % % % % % % % % % & * @ @ ",
"= = -                                                                           ; = = ",
"                                                                                      ",
"                                                                                      ",
"                                                                                      ",
"                                                                                      ",
"                                                                                      ",
"                                                                                      ",
"                                        > > ,                                         ",
"                            ' ) ! ~ { ] ^ ^ / ( _ : < '                               ",
"                        - [ } | 1 2 3 4 4 4 4 3 2 5 6 7 8 -                           ",
"                    - 9 0 a b c 4 4 4 4 4 4 4 4 4 4 c d e f g -                       ",
"                    h i j 3 4 4 4 4 4 4 4 4 4 4 4 4 4 4 3 k l m                       ",
"                - h n o 4 4 4 4 4 4 4 4 4 4 4 4 4 4 4 4 4 4 p q m -                   ",
"                9 r o 4 4 4 4 4 4 4 4 4 4 4 4 4 4 4 4 4 4 4 4 p s g                   ",
"              - t u 4 4 4 4 4 4 4 4 4 4 4 4 4 4 4 4 4 4 4 4 4 4 v w -                 ",
"              [ x 4 4 4 4 4 4 4 4 4 4 4 4 4 4 4 4 4 4 4 4 4 4 4 4 y z                 ",
"            ' A B 4 4 4 4 4 4 4 4 4 4 4 4 4 4 4 4 4 4 4 4 4 4 4 4 C D '               ",
"            ) E 4 4 4 4 4 4 4 4 4 4 4 4 4 4 4 4 4 4 4 4 4 4 4 4 4 4 F <               ",
"            G B 4 4 4 4 4 4 4 4 4 4 4 4 4 4 4 4 4 4 4 4 4 4 4 4 4 4 H I               ",
"            J 4 4 4 4 4 4 4 4 4 4 4 4 4 4 4 4 4 4 4 4 4 4 4 4 4 4 4 4 K               ",
"            L 4 4 4 4 4 4 4 M N O P Q R R R R Q P O N M 4 4 4 4 4 4 4 S               ",
"            T 4 4 4 4 4 4 4 U V W X X Y Y Y Y X X W V U 4 4 4 4 4 4 4 Z ,             ",
"          `  .4 4 4 4 4 4 4 ..+.@.#.$.$.$.$.$.$.#.@.+...4 4 4 4 4 4 4 %.&.            ",
"          `  .4 4 4 4 4 4 4 ..+.@.#.$.$.$.$.$.$.#.@.+...4 4 4 4 4 4 4 %.&.            ",
"          `  .4 4 4 4 4 4 4 U V W X X Y Y Y Y X X W V U 4 4 4 4 4 4 4 *.=.            ",
"            L 4 4 4 4 4 4 4 M N O P Q R R R R Q P O N M 4 4 4 4 4 4 4 S               ",
"            L 4 4 4 4 4 4 4 4 4 4 4 4 4 4 4 4 4 4 4 4 4 4 4 4 4 4 4 4 -.              ",
"            ;.c 4 4 4 4 4 4 4 4 4 4 4 4 4 4 4 4 4 4 4 4 4 4 4 4 4 4 c >.              ",
"            ,.'.4 4 4 4 4 4 4 4 4 4 4 4 4 4 4 4 4 4 4 4 4 4 4 4 4 4 ).!.              ",
"            ' ~.4 4 4 4 4 4 4 4 4 4 4 4 4 4 4 4 4 4 4 4 4 4 4 4 4 4 {.'               ",
"              ].'.4 4 4 4 4 4 4 4 4 4 4 4 4 4 4 4 4 4 4 4 4 4 4 4 ).^.                ",
"              - /.c 4 4 4 4 4 4 4 4 4 4 4 4 4 4 4 4 4 4 4 4 4 4 c (.-                 ",
"                _.L 4 4 4 4 4 4 4 4 4 4 4 4 4 4 4 4 4 4 4 4 4 4 :.<.                  ",
"                - ,.[.4 4 4 4 4 4 4 4 4 4 4 4 4 4 4 4 4 4 4 4 }.!.-                   ",
"                    ,.|.4 4 4 4 4 4 4 4 4 4 4 4 4 4 4 4 4 4 1.!.                      ",
"                    - _.;.2.4 4 4 4 4 4 4 4 4 4 4 4 4 4 2.>.<.-                       ",
"                        - 3.4.5.4 4 4 4 4 4 4 4 4 4 5.6.^.-                           ",
"                            ' ,.7.8.9.5.c c 5.9.8.0.!.'                               ",
"                                      ` a.a.=.                                        ",
"                                                                                      ",
"                                                                                      ",
"                                                                                      ",
"                                                                                      ",
"                                                                                      ",
"                                                                                      ",
"                                                                                      ",
"                                                                                      ",
"                                                                                      ",
"                                                                                      ",
"                                                                                      ",
"                                                                                      ",
"                                                                                      "};
