/* XPM */
static char * maximize_toggled_active_xpm[] = {
"43 58 173 2",
"  	c #020303",
". 	c #070A0B",
"+ 	c #0E1314",
"@ 	c #121819",
"# 	c #141A1B",
"$ 	c #161B1C",
"% 	c #194A20",
"& 	c #1A4E21",
"* 	c #1C5E24",
"= 	c #1D6124",
"- 	c #1A5222",
"; 	c #15211C",
"> 	c #194820",
", 	c #1D6024",
"' 	c #237E2A",
") 	c #268E2E",
"! 	c #27912F",
"~ 	c #299C32",
"{ 	c #2A9E32",
"] 	c #289430",
"^ 	c #24862C",
"/ 	c #1F6B26",
"( 	c #1B5322",
"_ 	c #24852C",
": 	c #299B32",
"< 	c #2DAC36",
"[ 	c #2FB338",
"} 	c #2FB438",
"| 	c #30B639",
"1 	c #30B739",
"2 	c #2FB538",
"3 	c #2EB037",
"4 	c #2BA133",
"5 	c #27902F",
"6 	c #1F6E27",
"7 	c #18441F",
"8 	c #227B2A",
"9 	c #299931",
"0 	c #30B839",
"a 	c #31BA3A",
"b 	c #31BB3A",
"c 	c #30B939",
"d 	c #2FB137",
"e 	c #2BA233",
"f 	c #25892D",
"g 	c #1C5B23",
"h 	c #194C21",
"i 	c #24832C",
"j 	c #2DA935",
"k 	c #30B538",
"l 	c #289330",
"m 	c #194B20",
"n 	c #2EB137",
"o 	c #23812B",
"p 	c #2EB237",
"q 	c #2CAB34",
"r 	c #1D6325",
"s 	c #2BA334",
"t 	c #2FB638",
"u 	c #2BA833",
"v 	c #2A2927",
"w 	c #292827",
"x 	c #2AA432",
"y 	c #2EAF37",
"z 	c #227C2A",
"A 	c #268C2E",
"B 	c #31B93A",
"C 	c #2FB437",
"D 	c #2D2C2A",
"E 	c #232220",
"F 	c #1F1F1D",
"G 	c #262524",
"H 	c #2EB337",
"I 	c #2A9D32",
"J 	c #1E6425",
"K 	c #1F6D27",
"L 	c #2BA434",
"M 	c #2B2B29",
"N 	c #464644",
"O 	c #302F2D",
"P 	c #656462",
"Q 	c #2FB337",
"R 	c #24842C",
"S 	c #183E1F",
"T 	c #268A2D",
"U 	c #1D1C1B",
"V 	c #0E0E0D",
"W 	c #282727",
"X 	c #1B1A19",
"Y 	c #262624",
"Z 	c #2AA532",
"` 	c #1C5923",
" .	c #2A9F33",
"..	c #2C2B29",
"+.	c #0B0B0A",
"@.	c #050504",
"#.	c #0F0E0D",
"$.	c #1C1B1A",
"%.	c #2EAD36",
"&.	c #207128",
"*.	c #1D5F24",
"=.	c #020202",
"-.	c #1B1B19",
";.	c #272624",
">.	c #2AA633",
",.	c #227A2A",
"'.	c #1F6C27",
").	c #2CA835",
"!.	c #2EB036",
"~.	c #2B2A29",
"{.	c #1E1D1C",
"].	c #050505",
"^.	c #040404",
"/.	c #080807",
"(.	c #121110",
"_.	c #282726",
":.	c #217829",
"<.	c #2DAF36",
"[.	c #31302E",
"}.	c #2F2E2C",
"|.	c #676664",
"1.	c #171615",
"2.	c #131312",
"3.	c #131211",
"4.	c #161514",
"5.	c #242322",
"6.	c #29A131",
"7.	c #268F2F",
"8.	c #18421F",
"9.	c #2CAA34",
"0.	c #2B2A28",
"a.	c #272625",
"b.	c #454341",
"c.	c #262523",
"d.	c #252523",
"e.	c #252422",
"f.	c #25962D",
"g.	c #2BA733",
"h.	c #363533",
"i.	c #353432",
"j.	c #403E3C",
"k.	c #20201E",
"l.	c #2BA933",
"m.	c #2BA934",
"n.	c #2DAD35",
"o.	c #238E2A",
"p.	c #1C1C1A",
"q.	c #11100F",
"r.	c #10100F",
"s.	c #151514",
"t.	c #2AA332",
"u.	c #228A28",
"v.	c #1A1918",
"w.	c #0D0C0C",
"x.	c #030303",
"y.	c #070706",
"z.	c #232321",
"A.	c #29A331",
"B.	c #218928",
"C.	c #0D0D0C",
"D.	c #21201F",
"E.	c #191918",
"F.	c #1D1D1B",
"G.	c #29A231",
"H.	c #218727",
"I.	c #191917",
"J.	c #141413",
"K.	c #208527",
"L.	c #279C2F",
"M.	c #2DAE35",
"N.	c #25952C",
"O.	c #1C7722",
"P.	c #1D7B23",
"                                                                                      ",
". . . . . . . . . . . . . . . . . . . . . . . . . . . . . . . . . . . . . . . . . . . ",
"+ + + + + + + + + + + + + + + + + + + + + + + + + + + + + + + + + + + + + + + + + + + ",
"@ @ @ @ @ @ @ @ @ @ @ @ @ @ @ @ @ @ @ @ @ @ @ @ @ @ @ @ @ @ @ @ @ @ @ @ @ @ @ @ @ @ @ ",
"# # # # # # # # # # # # # # # # # # # # # # # # # # # # # # # # # # # # # # # # # # # ",
"$ $ $ $ $ $ $ $ $ $ $ $ $ $ $ $ $ $ $ $ $ $ $ $ $ $ $ $ $ $ $ $ $ $ $ $ $ $ $ $ $ $ $ ",
"# # # # # # # # # # # # # # # # # # # # # # # # # # # # # # # # # # # # # # # # # # # ",
"# # # # # # # # # # # # # # # # # # # # # # # # # # # # # # # # # # # # # # # # # # # ",
"# # # # # # # # # # # # # # # # # # # # # # # # # # # # # # # # # # # # # # # # # # # ",
"# # # # # # # # # # # # # # # # # # # # # # # # # # # # # # # # # # # # # # # # # # # ",
"# # # # # # # # # # # # # # # # # # # # # # # # # # # # # # # # # # # # # # # # # # # ",
"# # # # # # # # # # # # # # # # # # # # # # # # # # # # # # # # # # # # # # # # # # # ",
"# # # # # # # # # # # # # # # # # # # # # # # # # # # # # # # # # # # # # # # # # # # ",
"# # # # # # # # # # # # # # # # # # # # # # # # # # # # # # # # # # # # # # # # # # # ",
"# # # # # # # # # # # # # # # # # # % & * = = - & ; # # # # # # # # # # # # # # # # # ",
"# # # # # # # # # # # # # # # > , ' ) ! ~ { { ] ! ^ / ( # # # # # # # # # # # # # # # ",
"# # # # # # # # # # # # # # * _ : < [ } | 1 1 2 } 3 4 5 6 7 # # # # # # # # # # # # # ",
"# # # # # # # # # # # # > 8 9 < | 0 a a a b b a a c 1 d e f g # # # # # # # # # # # # ",
"# # # # # # # # # # # h i j k c a b b b b b b b b b b a 1 3 l = # # # # # # # # # # # ",
"# # # # # # # # # # m i j 1 a b b b b a c 1 1 c a b b b a c n l = # # # # # # # # # # ",
"# # # # # # # # # # o j 1 a b b b b b 0 p q q p 0 b b b b b c n l - # # # # # # # # # ",
"# # # # # # # # # r s | a b b b b b a t u v w x p c b b b b b c y z # # # # # # # # # ",
"# # # # # # # # m A 3 B b b b b b b a C D E F G x H c b b b b a 1 I J # # # # # # # # ",
"# # # # # # # # K L 1 a b b b b b b a H M N O P G x Q c b b b b a 3 R S # # # # # # # ",
"# # # # # # # # T 3 B b b b b b b b a H M U V W X Y Z H c b b b a | I ` # # # # # # # ",
"# # # # # # # (  .| a b b b b b b b a H ..U +.@.#.$.Y Z Q c b b b c %.&.# # # # # # # ",
"# # # # # # # *.L 1 b b b b b b b b a H ..U +.=.@.W -.;.>.Q c b b a d ,.# # # # # # # ",
"# # # # # # # '.).0 b a a c 0 0 0 0 1 !.~.{.V ].^./.(.{._.u t a b a [ _ # # # # # # # ",
"# # # # # # # :.< c b c } <.[.[.[.[.[.}.w |.1.2.3.2.4.-.5.6.Q a b a k 7.8.# # # # # # ",
"# # # # # # # :.< c a t 9.0.a.G G b.G c.d.e.5.5.5.5.5.d.f.g.2 a b a k 7.8.# # # # # # ",
"# # # # # # # '.).0 a Q 6.5.$.1.h.i.i.j.k.w x l.m.l.l.9.n.Q c b b a [ _ # # # # # # # ",
"# # # # # # # *.L 1 a 2 >.o.p.q./.r.s._.{.~.!.1 0 0 0 0 0 c b b b a d ,.# # # # # # # ",
"# # # # # # # (  .| a 0 p t.u.v.w.x.y.z.h...Q a b b b b b b b b b c %.&.# # # # # # # ",
"# # # # # # # # T 3 B b c H A.B.v.C.@.D.U ..H a b b b b b b b b a | I ` # # # # # # # ",
"# # # # # # # # K L 1 a b c p t.u.E.C.V F.M H a b b b b b b b b a 3 R S # # # # # # # ",
"# # # # # # # # m A 3 B b b c H G.H.I.J.{.M H a b b b b b b b a 1 I J # # # # # # # # ",
"# # # # # # # # # r s | a b b c n 6.K.-.F L.H a b b b b b b b c y z # # # # # # # # # ",
"# # # # # # # # # # o j 1 a b b 0 M.N.O.P.L.H a b b b b b b c n l - # # # # # # # # # ",
"# # # # # # # # # # m i j 1 a b b b b b b b b b b b b b a c n l = # # # # # # # # # # ",
"# # # # # # # # # # # h i j k c a b b b b b b b b b b a 1 3 l = # # # # # # # # # # # ",
"# # # # # # # # # # # # > 8 9 < | 0 a a a b b a a c 1 d e f g # # # # # # # # # # # # ",
"# # # # # # # # # # # # # # * _ : < [ } | 1 1 2 } 3 4 5 6 7 # # # # # # # # # # # # # ",
"# # # # # # # # # # # # # # # > , ' ) ! ~ { { ] ! ^ / ( # # # # # # # # # # # # # # # ",
"# # # # # # # # # # # # # # # # # # % & * = = - & ; # # # # # # # # # # # # # # # # # ",
"# # # # # # # # # # # # # # # # # # # # # # # # # # # # # # # # # # # # # # # # # # # ",
"# # # # # # # # # # # # # # # # # # # # # # # # # # # # # # # # # # # # # # # # # # # ",
"# # # # # # # # # # # # # # # # # # # # # # # # # # # # # # # # # # # # # # # # # # # ",
"# # # # # # # # # # # # # # # # # # # # # # # # # # # # # # # # # # # # # # # # # # # ",
"# # # # # # # # # # # # # # # # # # # # # # # # # # # # # # # # # # # # # # # # # # # ",
"# # # # # # # # # # # # # # # # # # # # # # # # # # # # # # # # # # # # # # # # # # # ",
"# # # # # # # # # # # # # # # # # # # # # # # # # # # # # # # # # # # # # # # # # # # ",
"# # # # # # # # # # # # # # # # # # # # # # # # # # # # # # # # # # # # # # # # # # # ",
"# # # # # # # # # # # # # # # # # # # # # # # # # # # # # # # # # # # # # # # # # # # ",
"# # # # # # # # # # # # # # # # # # # # # # # # # # # # # # # # # # # # # # # # # # # ",
"# # # # # # # # # # # # # # # # # # # # # # # # # # # # # # # # # # # # # # # # # # # ",
"# # # # # # # # # # # # # # # # # # # # # # # # # # # # # # # # # # # # # # # # # # # ",
"# # # # # # # # # # # # # # # # # # # # # # # # # # # # # # # # # # # # # # # # # # # ",
"# # # # # # # # # # # # # # # # # # # # # # # # # # # # # # # # # # # # # # # # # # # "};
