/* XPM */
static char * maximize_toggled_prelight_xpm[] = {
"43 58 188 2",
"  	c #141A1B",
". 	c #161C1D",
"+ 	c #13191A",
"@ 	c #14191A",
"# 	c #151A1B",
"$ 	c #151B1C",
"% 	c #171C1E",
"& 	c #181F20",
"* 	c #1A2122",
"= 	c #1B2224",
"- 	c #1B2325",
"; 	c #1C2426",
"> 	c #1D2527",
", 	c #1D2526",
"' 	c #1C2425",
") 	c #192022",
"! 	c #171D1E",
"~ 	c #161B1C",
"{ 	c #171D1F",
"] 	c #1C2324",
"^ 	c #21292B",
"/ 	c #252F31",
"( 	c #283336",
"_ 	c #2B3639",
": 	c #2D393C",
"< 	c #2E3A3D",
"[ 	c #1C2325",
"} 	c #181D1F",
"| 	c #192021",
"1 	c #1D2627",
"2 	c #222B2D",
"3 	c #273133",
"4 	c #2B3638",
"5 	c #313E41",
"6 	c #334044",
"7 	c #354246",
"8 	c #364447",
"9 	c #1E2628",
"0 	c #161D1E",
"a 	c #1B2223",
"b 	c #222B2C",
"c 	c #2A3538",
"d 	c #303C3F",
"e 	c #323F42",
"f 	c #344144",
"g 	c #354245",
"h 	c #354346",
"i 	c #364448",
"j 	c #374548",
"k 	c #141A1A",
"l 	c #1E2728",
"m 	c #263031",
"n 	c #2C383A",
"o 	c #1E2627",
"p 	c #191F20",
"q 	c #1F2829",
"r 	c #283335",
"s 	c #303D3F",
"t 	c #354345",
"u 	c #283334",
"v 	c #1F2729",
"w 	c #364346",
"x 	c #3B484B",
"y 	c #424E51",
"z 	c #414D50",
"A 	c #39474A",
"B 	c #283234",
"C 	c #171C1D",
"D 	c #485357",
"E 	c #626B6F",
"F 	c #5E676B",
"G 	c #404D50",
"H 	c #344345",
"I 	c #262F31",
"J 	c #1B2123",
"K 	c #344346",
"L 	c #596265",
"M 	c #848A8E",
"N 	c #81878C",
"O 	c #5B6468",
"P 	c #384649",
"Q 	c #2C373A",
"R 	c #222A2C",
"S 	c #1A2021",
"T 	c #1D2628",
"U 	c #334245",
"V 	c #697074",
"W 	c #A3A7AB",
"X 	c #A5A9AE",
"Y 	c #7F868A",
"Z 	c #5C6569",
"` 	c #3E4B4E",
" .	c #1E2527",
"..	c #324144",
"+.	c #70767A",
"@.	c #B0B3B8",
"#.	c #B9BDC2",
"$.	c #A0A5AA",
"%.	c #80868B",
"&.	c #6F7679",
"*.	c #C3C6CB",
"=.	c #BBBEC3",
"-.	c #A3A7AC",
";.	c #7E858A",
">.	c #3D4A4D",
",.	c #273033",
"'.	c #C6C9CE",
").	c #C4C7CC",
"!.	c #B7BBC0",
"~.	c #A1A6AB",
"{.	c #80878B",
"].	c #424E52",
"^.	c #2B3538",
"/.	c #181E20",
"(.	c #6F7579",
"_.	c #AFB3B8",
":.	c #C5C8CD",
"<.	c #5A6367",
"[.	c #252E31",
"}.	c #1A2022",
"|.	c #293336",
"1.	c #A2A7AC",
"2.	c #7E8589",
"3.	c #586366",
"4.	c #404C4F",
"5.	c #313D41",
"6.	c #344044",
"7.	c #354447",
"8.	c #314144",
"9.	c #6C7376",
"0.	c #AAAEB2",
"a.	c #C1C4C9",
"b.	c #BABEC2",
"c.	c #9DA3A7",
"d.	c #7B8387",
"e.	c #586265",
"f.	c #3F4C4F",
"g.	c #374448",
"h.	c #2F3F42",
"i.	c #60696C",
"j.	c #989DA2",
"k.	c #B4B9BD",
"l.	c #C2C5CA",
"m.	c #C6C8CE",
"n.	c #B8BCC1",
"o.	c #A3A8AC",
"p.	c #7D8589",
"q.	c #5A6568",
"r.	c #2D393B",
"s.	c #1D2426",
"t.	c #3A484B",
"u.	c #465255",
"v.	c #576164",
"w.	c #697073",
"x.	c #61696C",
"y.	c #676F73",
"z.	c #80888B",
"A.	c #989EA2",
"B.	c #ABAFB3",
"C.	c #B0B4B8",
"D.	c #A2A6AB",
"E.	c #5E686C",
"F.	c #414D51",
"G.	c #2E3A3C",
"H.	c #2E393C",
"I.	c #151B1B",
"J.	c #2D383B",
"K.	c #1D2425",
"L.	c #BABDC2",
"M.	c #334043",
"N.	c #404C50",
"O.	c #7C8387",
"P.	c #9FA5A9",
"Q.	c #B6BABE",
"R.	c #313D40",
"S.	c #566063",
"T.	c #778083",
"U.	c #556063",
"V.	c #7A8286",
"W.	c #3C494C",
"X.	c #9FA4A8",
"Y.	c #7A8285",
"Z.	c #9BA1A5",
"`.	c #B8BCC0",
" +	c #788184",
".+	c #A2A7AB",
"++	c #3E4C4E",
"@+	c #283235",
"                                                                                      ",
"                                                                                      ",
"                                                                                      ",
"                                                                                      ",
"                                                                                      ",
"                                                                                      ",
". . . . . . . . . . . . . . . . . . . . . . . . . . . . . . . . . . . . . . . . . . . ",
"+ + + + + + + + + + + + + + + + + + + + + + + + + + + + + + + + + + + + + + + + + + + ",
"                                                                                      ",
"                                  + + + + @ @ @ @ +     #                             ",
"                          $ % & * = - ; > , , ' = ) & ! ~ #                           ",
"                          { ] ^ / ( _ : < < : _ ( / ^ [ } #                           ",
"                    . | 1 2 3 4 < 5 6 7 8 8 7 6 5 < 4 3 2 9 | .                       ",
"                  0 a b c d e f g h 8 i j j i 8 h g f e d c 2 a . # #                 ",
"            k # & l m n e h j j j j j j j j j j j j j j h e n m o p #                 ",
"            # ! q r s t 8 j j j j j j j j j j j j j j j j 8 t s u v ! # #             ",
"            & q r s t j j j j j j j j j 8 h h j j j j j j j j t s r v p #             ",
"          . 9 r s w j j j j j j j j j j x y z A j j j j j j j j w d B o C $ $         ",
"        . a m s t j j j j j j j j j j 8 D E F G H j j j j j j j j g d I J C #         ",
"        | 2 n t j j j j j j j j j j j K L M N O z P 8 j j j j j j j g Q R S #         ",
"        T c e 8 j j j j j j j j j j 8 U V W X Y Z ` h j j j j j j j 8 e c  .#         ",
"    $ { 2 d h j j j j j j j j j j j 8 ..+.@.#.$.%.O y j 8 j j j j j j h d 2 { $       ",
"    % ] 3 e j j j j j j j j j j j j 8 ..&.@.*.=.-.;.O >.j j j j j j j j e ,.] C # #   ",
"    & ^ 4 f j j j j j j j j j j j j 8 ..&.@.'.).!.~.{.O ].h 8 j j j j j f ^.^ /.# #   ",
"    * / < g j j j j j j j j j j j j 8 ..(._.:.).*.=.~.;.<.>.P j j j j j g < [.}.  $   ",
"  + = |.5 w j j j j j j j j j j j j 8 ..&.@.:.).:.*.!.1.2.3.4.K j j j j h 5.( a @     ",
"  + [ _ 6.8 j j j j j j 8 8 8 8 8 8 7.8.9.0.a.*.).).).b.c.d.e.f.A j j j 8 6 _ [ @     ",
"  + ; : 7 g.j j j j 8 h U ..........8.h.i.j.k.l.m.:.'.*.n.o.p.q.G 7.j j i 7 r.s.@ $   ",
"  + > < 8 j j j 8 t.u.v.w.+.&.(.&.&.9.x.y.z.A.B.C.@.@.@.@.D.z.E.F.h j j j w G., @ $   ",
"  @ , < 8 j j j h F.E.z.D.@.@.@.@.C.B.A.z.y.x.9.&.&.(.&.+.w.v.u.t.8 j j j w H.s.@ I.  ",
"  @ , : 7 g.j j 7.G q.p.o.n.*.'.:.m.l.k.j.i.h.8...........U h 8 j j j j 8 g J.K.@ I.  ",
"  @ ' _ 6.8 j j j A f.e.d.c.L.).).).*.a.0.9.8.7.8 8 8 8 8 8 j j j j j j 8 M._ [ @ $   ",
"  + = |.5 w j j j j K N.3.O.P.Q.*.:.).:.@.&...8 j j j j j j j j j j j j h R.r a @ #   ",
"  + ) / < g j j j j j P >.S.T.c.b.*.).:._.(...8 j j j j j j j j j j j j g < [.}.@     ",
"    & ^ 4 f j j j j j 8 h f.U.V.c.Q.).'.@.&...8 j j j j j j j j j j j j f ^.^ /.  #   ",
"    ! [ 3 e j j j j j j j j W.U.T.X.#.*.@.&...8 j j j j j j j j j j j j e ,.] % # $   ",
"  # ~ } 2 d h j j j j j j 8 j f.U.Y.Z.`.@.+...8 j j j j j j j j j j j h d 2 } ~ # #   ",
"    # # o c e 8 j j j j j j j 7.>.U. +.+D.w.U 8 j j j j j j j j j j 8 e c o # # # #   ",
"        | b n t j j j j j j j 8 P ++v.p.z.v.h j j j j j j j j j j j g Q R | #         ",
"        . a m s t j j j j j j j j K f.q.E.u.8 j j j j j j j j j j g d / J . #         ",
"          . o u s w j j j j j j j j A G F.t.j j j j j j j j j j w d @+9 . # #         ",
"          # p v r d g j j j j j j j j 7.h 8 j j j j j j j j j g d r v p # # #         ",
"          # # ! v B d g 8 j j j j j j j j j j j j j j j j 8 g d B v ! # # $ $         ",
"              # p o I Q e h j j j j j j j j j j j j j j h e Q / o p # # # #           ",
"              # # C J R c d e f g h 8 8 j j 8 8 h g f e d c R J . # # # #             ",
"                  $ C S  .2 ,.^.< R.M.g 8 8 g M.R.< ^.,.2 o | . # # # #               ",
"                  $ # # # { ] ^ [.r _ r.G.G.r._ r [.^ ] } # # # # # #                 ",
"                          $ C /.}.a [ s., , s.[ a }./.% ~ #                           ",
"                            # #   @ @ @ @ @ @ @ @ @   # # #                           ",
"                            # # $     $ $ I.I.$ #   # $ # #                           ",
"                                                                                      ",
"                                                                                      ",
"                                                                                      ",
"                                                                                      ",
"                                                                                      ",
"                                                                                      ",
"                                                                                      ",
"                                                                                      "};
