/* XPM */
static char * maximize_active_xpm[] = {
"43 58 132 2",
"  	c #141A1B",
". 	c #181B1C",
"+ 	c #221F20",
"@ 	c #242821",
"# 	c #504230",
"$ 	c #4E5731",
"% 	c #576136",
"& 	c #5D6D39",
"* 	c #5B7639",
"= 	c #556134",
"- 	c #161B1C",
"; 	c #222720",
"> 	c #2B5131",
", 	c #507235",
"' 	c #55943C",
") 	c #47A93B",
"! 	c #51B03E",
"~ 	c #46B53C",
"{ 	c #3DB83B",
"] 	c #231F21",
"^ 	c #503F30",
"/ 	c #576C36",
"( 	c #509F3B",
"_ 	c #3BB43A",
": 	c #35BA3A",
"< 	c #31BB3A",
"[ 	c #232721",
"} 	c #4C5230",
"| 	c #568B3A",
"1 	c #50B13E",
"2 	c #4C5C30",
"3 	c #4F9C3C",
"4 	c #39B93B",
"5 	c #4C5930",
"6 	c #504030",
"7 	c #50963A",
"8 	c #537836",
"9 	c #42B63B",
"0 	c #18241C",
"a 	c #2B5A31",
"b 	c #48A73B",
"c 	c #33BB3A",
"d 	c #2FB038",
"e 	c #34383A",
"f 	c #3E4244",
"g 	c #2A2F30",
"h 	c #292C2E",
"i 	c #2C8834",
"j 	c #498B37",
"k 	c #36B83A",
"l 	c #303536",
"m 	c #494E50",
"n 	c #181D1E",
"o 	c #2D3233",
"p 	c #4C4D30",
"q 	c #4AA53B",
"r 	c #303436",
"s 	c #4A4E51",
"t 	c #4A6D34",
"u 	c #3AB53A",
"v 	c #363A3C",
"w 	c #45494B",
"x 	c #4D8537",
"y 	c #3BB93B",
"z 	c #2EA436",
"A 	c #323638",
"B 	c #313537",
"C 	c #333739",
"D 	c #44484B",
"E 	c #538B39",
"F 	c #36393B",
"G 	c #4B4F52",
"H 	c #4C4F53",
"I 	c #383B3E",
"J 	c #333839",
"K 	c #141E1B",
"L 	c #499D39",
"M 	c #34BA3A",
"N 	c #424648",
"O 	c #505356",
"P 	c #35383B",
"Q 	c #313538",
"R 	c #5A5E61",
"S 	c #4B4E51",
"T 	c #4F5356",
"U 	c #3F4245",
"V 	c #4C9939",
"W 	c #4F5355",
"X 	c #35393B",
"Y 	c #333638",
"Z 	c #4F5255",
"` 	c #4D5154",
" .	c #2F3335",
"..	c #478035",
"+.	c #4C4F52",
"@.	c #414547",
"#.	c #4E5254",
"$.	c #4C6132",
"%.	c #3EB13B",
"&.	c #45494C",
"*.	c #243A22",
"=.	c #439A38",
"-.	c #33BA3A",
";.	c #393D3F",
">.	c #2D7D35",
",.	c #45484C",
"'.	c #223A22",
").	c #479838",
"!.	c #36BA3A",
"~.	c #1A3720",
"{.	c #4C5F31",
"].	c #3EB03A",
"^.	c #32BB3A",
"/.	c #3DB03A",
"(.	c #222320",
"_.	c #467D34",
":.	c #3AB33A",
"<.	c #233A22",
"[.	c #458234",
"}.	c #458134",
"|.	c #3BB33A",
"1.	c #459D38",
"2.	c #37B73A",
"3.	c #2E8135",
"4.	c #3EA639",
"5.	c #38B73A",
"6.	c #4B6733",
"7.	c #448B35",
"8.	c #459A38",
"9.	c #43A639",
"0.	c #3EAD39",
"a.	c #141F1B",
"                                                                                      ",
"                                                                                      ",
"                                                                                      ",
". . . . . . . . . . . . . . . . . . . . . . . . . . . . . . . . . . . . . . . . . . . ",
"                                                                                      ",
"                                                                                      ",
"                                                                                      ",
"                                                                                      ",
"                                                                                      ",
"                                                                                      ",
"                                                                                      ",
"                                                                                      ",
"                                                                                      ",
"                                                                                      ",
"                            + @ # $ % & * * & = $ # @ +                               ",
"                        - ; > , ' ) ! ~ { { ~ ! ) ' , > ; -                           ",
"                    - ] ^ / ( _ : < < < < < < < < : _ ( / ^ + -                       ",
"                    [ } | 1 : < < < < < < < < < < < < : 1 | } [                       ",
"                - [ 2 3 4 < < < < < < < < < < < < < < < < 4 3 2 [ -                   ",
"                ] 5 3 4 < < < < < < < < < < < < < < < < < < 4 3 5 +                   ",
"              - 6 7 4 < < < < < < < < < < < < < < < < < < < < 4 7 6 -                 ",
"              ; 8 9 < < < < < < < < < < < < < < < < < < < < < < 9 8 0                 ",
"            + a b c < < < < < < < < d e f g g g g e h i < < < < c b a +               ",
"            @ j k < < < < < < < < < l m g g n n n n o h < < < < < k j @               ",
"            p q c < < < < < < < < < r s g n n n n n n e < < < < < c q p               ",
"            t u < < < < < < < < < < < v w g n n n n n g < < < < < < u t               ",
"            x y < < < < < < z A B d < < C D g n n n n g < < < < < < y x               ",
"            E 4 < < < < < < F G H I < < < J g g n n n g < < < < < < 4 E               ",
"          K L M < < < < < < N n n O P < < < Q g g n R g < < < < < < M L K             ",
"          K L M < < < < < < S n B   T n < < < Q g g g U < < < < < < M L K             ",
"          K V : < < < < < < W n n B n n n < < < X g g Y < < < < < < : V K             ",
"            x y < < < < < < Z B n n n n ` C < < <  . .< < < < < < < y x               ",
"            ..k < < < < < < +.n n n n @.n #.v < < < < < < < < < < < k ..              ",
"            $.%.< < < < < < &.n n n n n n n s r < < < < < < < < < < %.$.              ",
"            *.=.-.< < < < < ;.;.n n W n n n m l < < < < < < < < < -.=.*.              ",
"            + >.u < < < < < i ;.,.+.Z W s @.e d < < < < < < < < < u >.+               ",
"              '.).!.< < < < < < < < < < < < < < < < < < < < < < !.).~.                ",
"              - {.].^.< < < < < < < < < < < < < < < < < < < < ^./.{.-                 ",
"                (._.:.^.< < < < < < < < < < < < < < < < < < ^.:._.(.                  ",
"                - <.[.:.^.< < < < < < < < < < < < < < < < ^.:.[.'.-                   ",
"                    <.}.|.c < < < < < < < < < < < < < < c :.}.'.                      ",
"                    - (.{.1.2.^.< < < < < < < < < < ^.2.1.{.(.-                       ",
"                        - ~.3.4.5.^.^.^.< < ^.^.^.2.4.3.~.-                           ",
"                            + *.6.7.8.9.0.0.9.8.7.6.*.+                               ",
"                                      K a.a.K                                         ",
"                                                                                      ",
"                                                                                      ",
"                                                                                      ",
"                                                                                      ",
"                                                                                      ",
"                                                                                      ",
"                                                                                      ",
"                                                                                      ",
"                                                                                      ",
"                                                                                      ",
"                                                                                      ",
"                                                                                      ",
"                                                                                      "};
