/* XPM */
static char * maximize_pressed_xpm[] = {
"43 58 284 2",
"  	c #181D1E",
". 	c #13191A",
"+ 	c #141A1B",
"@ 	c #14191B",
"# 	c #14181A",
"$ 	c #141618",
"% 	c #141317",
"& 	c #131015",
"* 	c #130D13",
"= 	c #130A12",
"- 	c #130911",
"; 	c #14191A",
"> 	c #151D1E",
", 	c #152524",
"' 	c #17302C",
") 	c #183A34",
"! 	c #18423A",
"~ 	c #19493F",
"{ 	c #1A4D42",
"] 	c #1A4F44",
"^ 	c #183A33",
"/ 	c #151D1D",
"( 	c #162826",
"_ 	c #1A3E38",
": 	c #1D554B",
"< 	c #206A5B",
"[ 	c #237A68",
"} 	c #258672",
"| 	c #268E79",
"1 	c #27927C",
"2 	c #1D554A",
"3 	c #1A3D37",
"4 	c #162726",
"5 	c #152221",
"6 	c #173731",
"7 	c #1B4F45",
"8 	c #1E6255",
"9 	c #227262",
"0 	c #25806E",
"a 	c #278E79",
"b 	c #2A9A83",
"c 	c #2BA48B",
"d 	c #2DAB91",
"e 	c #2DAE94",
"f 	c #227162",
"g 	c #183731",
"h 	c #152523",
"i 	c #1E5C50",
"j 	c #25816F",
"k 	c #299781",
"l 	c #2BA28A",
"m 	c #2CA78E",
"n 	c #2CAA91",
"o 	c #2DAD93",
"p 	c #2DAF95",
"q 	c #2EB196",
"r 	c #2EB297",
"s 	c #193A34",
"t 	c #141719",
"u 	c #141C1C",
"v 	c #17312D",
"w 	c #1B4E44",
"x 	c #206E5E",
"y 	c #268975",
"z 	c #2A9F88",
"A 	c #2DAC93",
"B 	c #2EB499",
"C 	c #2EB498",
"D 	c #2EB398",
"E 	c #2DAC92",
"F 	c #2B9F87",
"G 	c #216E5E",
"H 	c #162D29",
"I 	c #1C5147",
"J 	c #227564",
"K 	c #299881",
"L 	c #2CAB92",
"M 	c #2DB095",
"N 	c #1C5146",
"O 	c #162C29",
"P 	c #141B1C",
"Q 	c #237967",
"R 	c #2CAB91",
"S 	c #237867",
"T 	c #1C5046",
"U 	c #227364",
"V 	c #1B4D43",
"W 	c #206D5E",
"X 	c #183834",
"Y 	c #152121",
"Z 	c #2DB398",
"` 	c #2BB397",
" .	c #29B297",
"..	c #28B297",
"+.	c #2AB397",
"@.	c #268875",
"#.	c #1E5B50",
"$.	c #173631",
"%.	c #2A9F87",
"&.	c #2CB398",
"*.	c #25826F",
"=.	c #1B5045",
"-.	c #2FB398",
";.	c #33B59B",
">.	c #50BAA3",
",.	c #7DC6B3",
"'.	c #94CDBD",
").	c #99CEBF",
"!.	c #9BCEC0",
"~.	c #9ACEBF",
"{.	c #97CDBE",
"].	c #88CAB8",
"^.	c #6FC3AF",
"/.	c #4CB9A0",
"(.	c #141D1D",
"_.	c #31B499",
":.	c #39B89E",
"<.	c #70C5B1",
"[.	c #B8DFD5",
"}.	c #DDEFEA",
"|.	c #E7F3F0",
"1.	c #EBF4F1",
"2.	c #ECF5F2",
"3.	c #E7F3EF",
"4.	c #D0EBE4",
"5.	c #ABDCD0",
"6.	c #217162",
"7.	c #193D37",
"8.	c #25806F",
"9.	c #30B499",
"0.	c #36B69D",
"a.	c #65C1AC",
"b.	c #A5D7CB",
"c.	c #D2EBE5",
"d.	c #F1F9F7",
"e.	c #FEFFFF",
"f.	c #FFFFFF",
"g.	c #F1FAF8",
"h.	c #24806E",
"i.	c #1D544A",
"j.	c #162F2C",
"k.	c #206A5C",
"l.	c #278E7A",
"m.	c #3EB79D",
"n.	c #5BBFA9",
"o.	c #96D2C4",
"p.	c #D4ECE6",
"q.	c #FBFDFD",
"r.	c #278D79",
"s.	c #20685B",
"t.	c #18433A",
"u.	c #237A69",
"v.	c #2A9B84",
"w.	c #3AB89F",
"x.	c #36B79D",
"y.	c #2CB297",
"z.	c #30B59B",
"A.	c #64C1AC",
"B.	c #9FD5C8",
"C.	c #CDE9E2",
"D.	c #F0F9F7",
"E.	c #FDFEFE",
"F.	c #237968",
"G.	c #258773",
"H.	c #2BA48C",
"I.	c #51BBA3",
"J.	c #72C6B2",
"K.	c #67C2AD",
"L.	c #40B79E",
"M.	c #2EB399",
"N.	c #3AB69D",
"O.	c #57BEA8",
"P.	c #9BD3C6",
"Q.	c #D5ECE7",
"R.	c #1A4D43",
"S.	c #268F79",
"T.	c #7FC6B4",
"U.	c #BBE0D6",
"V.	c #A9D8CD",
"W.	c #5FC0AB",
"X.	c #33B69C",
"Y.	c #2CB397",
"Z.	c #35B69C",
"`.	c #66C1AC",
" +	c #9AD3C5",
".+	c #CCE8E1",
"++	c #96CDBE",
"@+	c #DFEFEC",
"#+	c #9AD3C6",
"$+	c #68C2AE",
"%+	c #3DB79D",
"&+	c #2DB399",
"*+	c #33B69B",
"=+	c #54BEA7",
"-+	c #9CD4C6",
";+	c #D2EBE4",
">+	c #EFF9F6",
",+	c #E8F3F0",
"'+	c #F3FAF8",
")+	c #D8EDE8",
"!+	c #A3D6CA",
"~+	c #5BC0AA",
"{+	c #37B69D",
"]+	c #39B69C",
"^+	c #62C0AA",
"/+	c #94D1C2",
"(+	c #D0EAE3",
"_+	c #DBEEE9",
":+	c #93CDBD",
"<+	c #26917C",
"[+	c #9BCEBF",
"}+	c #F3FAF9",
"|+	c #D0EAE4",
"1+	c #9DD5C7",
"2+	c #68C2AD",
"3+	c #36B69C",
"4+	c #2DB397",
"5+	c #2EB59B",
"6+	c #58BEA8",
"7+	c #A3D7CA",
"8+	c #B6DED4",
"9+	c #7CC5B3",
"0+	c #2CA990",
"a+	c #268D78",
"b+	c #194C42",
"c+	c #130B12",
"d+	c #FCFEFD",
"e+	c #D7EDE7",
"f+	c #58BFA9",
"g+	c #3BB79D",
"h+	c #6FC5B1",
"i+	c #4FBAA3",
"j+	c #2BA38B",
"k+	c #258571",
"l+	c #19483F",
"m+	c #CEE9E2",
"n+	c #A0D5C8",
"o+	c #31B69C",
"p+	c #299983",
"q+	c #131115",
"r+	c #F2FAF8",
"s+	c #D5ECE6",
"t+	c #97D3C4",
"u+	c #5CC0AA",
"v+	c #3FB79D",
"w+	c #2CAA90",
"x+	c #20685A",
"y+	c #173933",
"z+	c #141417",
"A+	c #D1EBE4",
"B+	c #D3EBE5",
"C+	c #A6D8CB",
"D+	c #66C2AD",
"E+	c #37B79D",
"F+	c #247F6D",
"G+	c #1C5349",
"H+	c #162F2B",
"I+	c #227161",
"J+	c #70C3AF",
"K+	c #ACDCD0",
"L+	c #B9DFD5",
"M+	c #71C6B2",
"N+	c #217161",
"O+	c #193C37",
"P+	c #1E6254",
"Q+	c #95CDBD",
"R+	c #7EC6B3",
"S+	c #2A9E88",
"T+	c #1E5B4F",
"U+	c #183833",
"V+	c #1B4C43",
"W+	c #152423",
"X+	c #237767",
"Y+	c #1C4F46",
"Z+	c #227464",
"`+	c #17312C",
" @	c #2A9E87",
".@	c #268874",
"+@	c #2A9983",
"@@	c #2DAA91",
"#@	c #247F6E",
"$@	c #1D534A",
"%@	c #162725",
"&@	c #183933",
"                                                                                      ",
"                                                                                      ",
"                                                                                      ",
"                                                                                      ",
"                                                                                      ",
"                                                                                      ",
"                                                                                      ",
". . . . . . . . . . . . . . . . . . . . . . . . . . . . . . . . . . . . . . . . . . . ",
"+ + + + + + + + + + + + + + + + + + + + + + + + + + + + + + + + + + + + + + + + + + + ",
"+ + + + + + + + + + + + + @ # $ % & * = - - = * & % $ # @ + + + + + + + + + + + + + + ",
"+ + + + + + + + + + + @ ; > , ' ) ! ~ { ] ] { ~ ! ^ ' , / ; @ + + + + + + + + + + + + ",
"+ + + + + + + + + + + # # ( _ : < [ } | 1 1 | } [ < 2 3 4 # # + + + + + + + + + + + + ",
"+ + + + + + + + # + 5 6 7 8 9 0 a b c d e e d c b a 0 f 8 7 g 5 + # + + + + + + + + + ",
"+ + + + + + + + + h ) i j k l m n o p q r r q p o n m l k j i s h + + + + + + + + + + ",
"+ + + + + + t u v w x y z A r B B C D D D D D D C B B r E F y G w v u t + + + + + + + ",
"+ + + + + + u H I J K L M r D D D D D D D D D D D D D D r M L K J N O P + + + + + + + ",
"+ + + + # + v I Q k R B B D D D D D D D D D D D D D D D D B B R k S T ' + # + + + + + ",
"+ + + + + h w J k e D D D D D D D D D D D D D D D D D D D D D D e k U V h + + + + + + ",
"+ + + + 5 ) x K R D B D D D D D D D D D D D D D D D D D D D D B D n k W X Y + + + + + ",
"+ + @ # 6 i y L B D D D D D D D D D Z `  ...........+.` Z D D D D B L @.#.$.# @ + + + ",
"+ + ; # 7 j %.M B D D D D D D D D D D Z Z &.&.&.&.&.Z Z D D D D D B M %.*.=.# ; + + + ",
"+ @ > ( 8 k E r D D D D D D D D -.;.>.,.'.).!.~.!.{.].^./.D Z D D D r E k 8 ( (.@ + + ",
"+ # , _ 9 l r D D D D D D D D Z _.:.<.[.}.|.1.1.2.3.4.5.^.Z ` D D D D r l 6.7., # + + ",
"+ $ ' : 8.m B D D D D D D D Z Z 9.0.a.b.c.d.e.f.f.e.g.4.].Z +.D D D D B m h.i.j.$ + + ",
"+ % ) k.l.n B D D D D D D -._.9.-.D m.n.o.p.g.q.f.e.e.3.{.&...D D D D B n r.s.^ % + + ",
"+ & t.u.v.o C D D D D D D ;.w.x.D y.D z.A.B.C.D.E.f.f.2.!.&...D D D D C o b F.! & + + ",
"+ * ~ G.H.p D D D D D Z D I.J.K.L.M.D D N.O.P.Q.D.q.f.1.~.&...D D D D D p c } ~ * + + ",
"+ = R.S.d q D D D D D ` Z T.U.V.W.X.-.Y.Z Z.`. +.+D.e.1.!.&...D D D D D q d | { = + + ",
"+ - ] 1 e r D D D D D  .Z ++@+Q.#+$+%+&+Z D *+=+-+;+>+3.).&...D D D D D r e 1 ] - + + ",
"+ - ] 1 e r D D D D D ..&.~.,+'+)+!+~+{+D Z &.]+^+/+(+_+:+Z  .D D D D D r o <+] - + + ",
"+ = { | d q D D D D D ..&.[+1.f.}+|+1+2+3+Z 4+D 5+6+7+8+9+Z ` D D D D D q 0+a+b+c++ + ",
"+ * ~ } c p D D D D D ..&.~.1.f.d+d.e+-+f+g+D D Z %+A.h+i+D Z D D D D D p j+k+l+* + + ",
"+ & ! [ b o C D D D D ..&.!.2.f.f.E.D.m+n+a.o+M.y.-.0.:.;.D D D D D D C o p+S ! q++ + ",
"+ % ^ < a n B D D D D ..&.{.3.e.f.f.q.r+s+t+u+v+-.-.9._.-.D D D D D D B w+r.x+y+z++ + ",
"+ $ ' 2 0 m B D D D D +.Z ].A+g.e.f.f.f.d.B+C+D+E+9.Z Z D D D D D D D B m F+G+H+$ + + ",
"+ # , 3 I+l r D D D D ` Z J+K+A+3.2.1.1.,+}.L+M+w._.Z D D D D D D D D r l N+O+h # + + ",
"+ @ / 4 P+k E r D D D Z D /.J+].{.!.~.!.).Q+R+I.;.-.D D D D D D D D r A k 8 4 (.@ + + ",
"+ + ; # 7 j F M B D D D D D Z Z &.&.&.&.&.Z Z D D D D D D D D D D B M S+j 7 # ; + + + ",
"+ + ; # g i y L B D D D D Z ` +........... .` Z D D D D D D D D D B L @.T+$.; @ + + + ",
"+ + + + 5 s G K R D B D D D D D D D D D D D D D D D D D D D D B D n k W U+Y + + + + + ",
"+ + + + + h w J k e D D D D D D D D D D D D D D D D D D D D D D e k U V+W++ + + + + + ",
"+ + + + # + v N S k n B B D D D D D D D D D D D D D D D D B B n k X+Y+' + # + + + + + ",
"+ + + + + + P O T Z+k L M r D D D D D D D D D D D D D D r M L k U T O P + + + + + + + ",
"+ + + + + + t P `+V W @. @E r B B C D D D D D D C B B r E  @.@W V ' P t + + + + + + + ",
"+ + + + + + + + + h X #.j k l m n o p q r r q p o n m l k j T+U+W++ + + + + + + + + + ",
"+ + + + + + + + # + Y $.7 P+N+h.r.+@j+@@e e @@j++@r.#@N+P+7 $.Y + # + + + + + + + + + ",
"+ + + + + + + + + + + ; # ( 7.i.s.F.k+| 1 1 | k+F.s.$@O+%@# ; + + + + + + + + + + + + ",
"+ + + + + + + + + + + ; ; (., j.&@! l+{ ] ] { l+! &@H+h (.; ; + + + + + + + + + + + + ",
"+ + + + + + + + + + + + + @ # $ % & * = - - = * & % $ # @ + + + + + + + + + + + + + + ",
"+ + + + + + + + + + + + + + + + + + + + + + + + + + + + + + + + + + + + + + + + + + + ",
"+ + + + + + + + + + + + + + + + + + + + + + + + + + + + + + + + + + + + + + + + + + + ",
"+ + + + + + + + + + + + + + + + + + + + + + + + + + + + + + + + + + + + + + + + + + + ",
"+ + + + + + + + + + + + + + + + + + + + + + + + + + + + + + + + + + + + + + + + + + + ",
"+ + + + + + + + + + + + + + + + + + + + + + + + + + + + + + + + + + + + + + + + + + + ",
"                                                                                      ",
"                                                                                      ",
"                                                                                      ",
"                                                                                      "};
