/* XPM */
static char * maximize_toggled_pressed_xpm[] = {
"43 58 239 2",
"  	c #141A1B",
". 	c #161C1D",
"+ 	c #13191A",
"@ 	c #14191B",
"# 	c #14191A",
"$ 	c #14181A",
"% 	c #141719",
"& 	c #141819",
"* 	c #141619",
"= 	c #141518",
"- 	c #141517",
"; 	c #141417",
"> 	c #141618",
", 	c #152423",
"' 	c #17332E",
") 	c #19423A",
"! 	c #1A4E44",
"~ 	c #1C584B",
"{ 	c #1C5E50",
"] 	c #1D6152",
"^ 	c #1D6052",
"/ 	c #1C574B",
"( 	c #19413A",
"_ 	c #17322E",
": 	c #141B1C",
"< 	c #141E1E",
"[ 	c #162C29",
"} 	c #193F39",
"| 	c #1D564C",
"1 	c #216D5E",
"2 	c #24806E",
"3 	c #278F7A",
"4 	c #289881",
"5 	c #299C84",
"6 	c #289781",
"7 	c #278E79",
"8 	c #247F6D",
"9 	c #216C5E",
"0 	c #14181B",
"a 	c #17302C",
"b 	c #1B5046",
"c 	c #1F6759",
"d 	c #237968",
"e 	c #268773",
"f 	c #28927D",
"g 	c #2A9E86",
"h 	c #2CA78E",
"i 	c #2DAD93",
"j 	c #2EB095",
"k 	c #2CA68E",
"l 	c #2A9D86",
"m 	c #268774",
"n 	c #1B5045",
"o 	c #141B1B",
"p 	c #152321",
"q 	c #1C5349",
"r 	c #237A69",
"s 	c #28947F",
"t 	c #2BA68D",
"u 	c #2DAC92",
"v 	c #2DAF95",
"w 	c #2EB196",
"x 	c #2EB297",
"y 	c #28947E",
"z 	c #1C5348",
"A 	c #17312D",
"B 	c #152221",
"C 	c #151E1E",
"D 	c #183C35",
"E 	c #1F6859",
"F 	c #258673",
"G 	c #299A84",
"H 	c #2CA990",
"I 	c #2EB599",
"J 	c #2EB499",
"K 	c #2EB398",
"L 	c #2DB398",
"M 	c #29B297",
"N 	c #2AB397",
"O 	c #2CA98F",
"P 	c #183B35",
"Q 	c #151D1E",
"R 	c #1E6153",
"S 	c #268E79",
"T 	c #2CA88F",
"U 	c #35B49A",
"V 	c #42B79E",
"W 	c #40B79D",
"X 	c #32B499",
"Y 	c #1E6053",
"Z 	c #2BA58C",
"` 	c #2CB397",
" .	c #4BBAA2",
"..	c #71C7B4",
"+.	c #6BC5B0",
"@.	c #3FB69D",
"#.	c #27B297",
"$.	c #268D79",
"%.	c #17312C",
"&.	c #14171A",
"*.	c #28B297",
"=.	c #66C0AB",
"-.	c #A2D9CC",
";.	c #9ED7CA",
">.	c #68C2AD",
",.	c #3FB79D",
"'.	c #30B399",
").	c #2CB398",
"!.	c #2EB096",
"~.	c #258672",
"{.	c #16302C",
"].	c #1B4F45",
"^.	c #299A83",
"/.	c #23B296",
"(.	c #81C6B4",
"_.	c #D1E9E2",
":.	c #D2ECE6",
"<.	c #9BD7C9",
"[.	c #67C4AF",
"}.	c #3BB59C",
"|.	c #2AB297",
"1.	c #2DAF94",
"2.	c #1B4F46",
"3.	c #141A1C",
"4.	c #1F6758",
"5.	c #20B296",
"6.	c #8CC9B8",
"7.	c #E4F0EC",
"8.	c #EFF9F7",
"9.	c #CAEAE3",
"0.	c #9DD6C9",
"a.	c #67C2AD",
"b.	c #41B79E",
"c.	c #162B28",
"d.	c #2BA58D",
"e.	c #8BC8B7",
"f.	c #FDFFFE",
"g.	c #F1F9F7",
"h.	c #CFEBE4",
"i.	c #99D7C9",
"j.	c #67C3AE",
"k.	c #39B59B",
"l.	c #193E38",
"m.	c #152323",
"n.	c #1D574C",
"o.	c #8AC8B7",
"p.	c #FFFFFF",
"q.	c #ECF8F5",
"r.	c #CCEAE3",
"s.	c #9ED6C9",
"t.	c #268673",
"u.	c #1D554B",
"v.	c #216E5E",
"w.	c #28937D",
"x.	c #E3F0EC",
"y.	c #FDFEFE",
"z.	c #F2F9F8",
"A.	c #3AB59B",
"B.	c #28917C",
"C.	c #216B5D",
"D.	c #194139",
"E.	c #1A4F44",
"F.	c #24816E",
"G.	c #E4F0ED",
"H.	c #EDF8F5",
"I.	c #CEEBE4",
"J.	c #9BD5C8",
"K.	c #63C2AD",
"L.	c #3EB69D",
"M.	c #1A4E43",
"N.	c #85C7B6",
"O.	c #DCEDE9",
"P.	c #FBFEFD",
"Q.	c #FEFFFF",
"R.	c #C8E8E1",
"S.	c #97D5C7",
"T.	c #65C1AC",
"U.	c #3DB69D",
"V.	c #1AB195",
"W.	c #73C3AF",
"X.	c #C0E4DB",
"Y.	c #E7F6F3",
"Z.	c #EFF8F6",
"`.	c #D0EBE5",
" +	c #9BD6C8",
".+	c #67C3AF",
"++	c #49B9A1",
"@+	c #64BFAA",
"#+	c #80C6B4",
"$+	c #86C7B6",
"%+	c #74C3AF",
"&+	c #7AC7B5",
"*+	c #D0E8E2",
"=+	c #9FD7CA",
"-+	c #6CC5B2",
";+	c #299B84",
">+	c #289680",
",+	c #1C5D50",
"'+	c #2CA68D",
")+	c #278D79",
"!+	c #99D4C6",
"~+	c #CBE9E2",
"{+	c #EBF6F4",
"]+	c #1A4D43",
"^+	c #61C0AB",
"/+	c #90D3C4",
"(+	c #C8E7E0",
"_+	c #3CB69D",
":+	c #5FC0AB",
"<+	c #97D3C5",
"[+	c #38B59B",
"}+	c #CAE8E1",
"|+	c #F0F8F6",
"1+	c #193D37",
"2+	c #152322",
"3+	c #60C0AB",
"4+	c #96D3C5",
"5+	c #C5E7DF",
"6+	c #EEF8F5",
"7+	c #2DAE94",
"8+	c #5FC1AB",
"9+	c #93D3C4",
"0+	c #CFEAE4",
"a+	c #237A68",
"b+	c #162F2B",
"c+	c #1B5247",
"d+	c #258571",
"e+	c #3BB69C",
"f+	c #63C0AB",
"g+	c #9AD5C8",
"h+	c #1F6658",
"i+	c #268D78",
"j+	c #2BA48B",
"k+	c #2BA48C",
"l+	c #258572",
"m+	c #28937E",
"n+	c #1B5248",
"o+	c #237967",
"p+	c #247E6D",
"                                                                                      ",
"                                                                                      ",
"                                                                                      ",
"                                                                                      ",
"                                                                                      ",
"                                                                                      ",
". . . . . . . . . . . . . . . . . . . . . . . . . . . . . . . . . . . . . . . . . . . ",
"+ + + + + + + + + + + + + + + + + + + + + + + + + + + + + + + + + + + + + + + + + + + ",
"                                                                                      ",
"                                                                                      ",
"                              @ # $ $ % % % % $ $ # @                                 ",
"                            @ # & * = - ; ; = = * & # @                               ",
"                      # >   , ' ) ! ~ { ] ^ { / ! ( _ ,   * #                         ",
"                      : < [ } | 1 2 3 4 5 5 6 7 8 9 | } [ < :                         ",
"                @ @ 0 a b c d e f g h i j j i k l f m d c n a $ # @                   ",
"                o p _ q r s t u i v w x x x x w v i u t y r z A B o                   ",
"            @ o C D E F G H x I J J K K L M N L J J I x O G F E P Q o @               ",
"            @ p D R S T v x K K K K K K U V W X L K K K x v T S Y P B #               ",
"            0 _ E S Z w K K K K K K K `  ...+.@.#.K K K K K w Z $.c %.&.              ",
"        # : a z F T w K K K K K K K L *.=.-.;.>.,.'.).K K K K !.h ~.z {.: #           ",
"        * < ].d ^.v K K K K K K K K )./.(._.:.<.[.}.|.K K K K K 1.G r 2.< >           ",
"        3.[ 4.y T x K K K K K K K K ).5.6.7.8.9.0.a.b.L ` K K K x H s c c.            ",
"      @ , } d d.x K K K K K K K K K ).5.e.7.f.g.h.i.j.k.L K K K K x d.d l.m.@         ",
"    @ # ' n.m u I K K K K K K K K K ).5.o.7.p.p.q.r.s.j.b.|.).K K I u t.u._ # @       ",
"    # & ) v.w.i J K K K K K K K K K ).5.o.x.p.p.y.z.r.i.a.A.'.K K J i B.C.D.& #       ",
"    $ * E.F.g v J K K K K K K K K K ).5.e.G.p.p.p.y.H.I.J.K.L.*.L J v l 8 M.% $       ",
"    $ = ~ 3 h w K K K L ).).).).).).N 5.N.O.P.Q.p.p.p.g.R.S.T.U.X L w k 7 / = $       ",
"    % - { 4 i x K K ).M /.5.5.5.5.5.5.V.W.X.Y.P.p.p.p.y.Z.`. +.+L.N x i 6 { = %       ",
"    % ; ^ 5 j x L U ++@+#+6.e.o.o.e.$+%+&+0.X.O.G.x.x.7.7.*+=+-+W |.x j 5 ^ ; %       ",
"    % ; ^ 5 j x |.W -+=+*+7.7.x.x.G.O.X.0.&+%+$+e.o.o.e.6.#+@+++U L x v ;+^ ; %       ",
"    % - { 4 i x N L..+ +`.Z.y.p.p.p.P.Y.X.W.V.5.5.5.5.5.5./.M ).K K x u >+,+= &       ",
"    $ = ~ 3 h w L X U.T.S.R.g.p.p.p.Q.P.O.N.5.N ).).).).).).L K K K !.'+)+/ = $       ",
"    $ * ! 2 g v J L *.L.K.!+~+{+y.p.p.p.G.e.5.).K K K K K K K K K J v l 8 ]+% $       ",
"    # & ) 1 f i J K K '.A.^+/+(+g.y.p.p.x.o.5.).K K K K K K K K K J i B.C.D.& #       ",
"    @ # ' | m u I K K ).|._+:+<+(+{+p.p.7.o.5.).K K K K K K K K K I u F u._ # @       ",
"      @ , } d d.x K K K K L [+:+/+}+|+y.7.e.5.).K K K K K K K K K x d.d 1+2+@         ",
"        3.[ 4.y T x K K K ).L _+3+4+5+6+7.6.5.).K K K K K K K K x O y 4.c.            ",
"        * < ].d ^.7+K K K K K |.k.8+9+0+*+(./.).K K K K K K K K 1.G a+].< *           ",
"        # : b+c+d+'+!.K K K K L '.e+f+g+=+@+M L K K K K K K K !.h ~.z {.: #           ",
"            &.a h+i+j+!.K K K K K *.L..+-+++).K K K K K K K !.k+$.c A &.              ",
"            # B P Y $.h 1.x K K K L X @.W U K K K K K K x 1.h $.Y P B #               ",
"            @ : Q P c ~.G O x I J J L N |.L K K J J I x T ^.l+c P Q o @               ",
"                o B A z a+y d.u i v w x x x x w v i u d.m+d n+A B o                   ",
"                @ # $ a n c d t.B.l k i j j i k l B.t.o+h+].b+&.# @                   ",
"                      : < c.l.u.C.p+)+6 5 5 6 )+p+C.u.1+c.< :                         ",
"                      # *   m._ D.]+/ ,+] ] ,+/ ]+D._ 2+  * #                         ",
"                            @ # & % = = ; ; = = % & # @                               ",
"                              @ # $ $ % % % % $ $ # @                                 ",
"                                                                                      ",
"                                                                                      ",
"                                                                                      ",
"                                                                                      ",
"                                                                                      ",
"                                                                                      ",
"                                                                                      ",
"                                                                                      ",
"                                                                                      ",
"                                                                                      "};
