/* XPM */
static char * maximize_prelight_xpm[] = {
"43 58 201 2",
"  	c #181D1E",
". 	c #13191A",
"+ 	c #141A1B",
"@ 	c #14191A",
"# 	c #131919",
"$ 	c #151B1C",
"% 	c #161C1D",
"& 	c #171E1F",
"* 	c #192022",
"= 	c #1A2223",
"- 	c #1B2325",
"; 	c #1C2426",
"> 	c #1C2526",
", 	c #171D1F",
"' 	c #1B2324",
") 	c #20292B",
"! 	c #242F31",
"~ 	c #273336",
"{ 	c #2A3639",
"] 	c #2C393B",
"^ 	c #2D3A3C",
"/ 	c #192021",
"( 	c #1D2627",
"_ 	c #212B2D",
": 	c #263133",
"< 	c #2A3638",
"[ 	c #2D3A3D",
"} 	c #303E41",
"| 	c #324044",
"1 	c #344246",
"2 	c #354447",
"3 	c #1D2628",
"4 	c #212B2C",
"5 	c #293538",
"6 	c #2F3C3F",
"7 	c #323F42",
"8 	c #334144",
"9 	c #344245",
"0 	c #344346",
"a 	c #354448",
"b 	c #364548",
"c 	c #181F20",
"d 	c #253031",
"e 	c #2B383A",
"f 	c #313F42",
"g 	c #161D1E",
"h 	c #1E2829",
"i 	c #273335",
"j 	c #2F3D3F",
"k 	c #344345",
"l 	c #273334",
"m 	c #1E2729",
"n 	c #354346",
"o 	c #273234",
"p 	c #252F31",
"q 	c #1A2123",
"r 	c #334346",
"s 	c #344447",
"t 	c #2B373A",
"u 	c #212A2C",
"v 	c #354548",
"w 	c #374649",
"x 	c #39484B",
"y 	c #4A5659",
"z 	c #666F72",
"A 	c #767D80",
"B 	c #798083",
"C 	c #7A8084",
"D 	c #787E82",
"E 	c #6E7579",
"F 	c #5E676A",
"G 	c #475356",
"H 	c #38474A",
"I 	c #3E4D50",
"J 	c #5F696C",
"K 	c #91979B",
"L 	c #ABB0B4",
"M 	c #B3B6BB",
"N 	c #B5B9BD",
"O 	c #B6B9BE",
"P 	c #B2B6BB",
"Q 	c #A3A8AC",
"R 	c #898F93",
"S 	c #263033",
"T 	c #3C4B4E",
"U 	c #586366",
"V 	c #848B8E",
"W 	c #A4A9AD",
"X 	c #BABEC2",
"Y 	c #C4C7CC",
"Z 	c #C5C8CD",
"` 	c #C6C9CE",
" .	c #BABEC3",
"..	c #2A3538",
"+.	c #3F4D50",
"@.	c #525D60",
"#.	c #798185",
"$.	c #A5ABAF",
"%.	c #C1C5C9",
"&.	c #242E31",
"*.	c #283336",
"=.	c #3A484B",
"-.	c #3D4B4E",
";.	c #576265",
">.	c #7F878A",
",.	c #A0A6AA",
"'.	c #B9BDC2",
").	c #C2C6CB",
"!.	c #303D41",
"~.	c #334044",
"{.	c #4B5659",
"].	c #616A6E",
"^.	c #596467",
"/.	c #404E51",
"(.	c #3D4C4F",
"_.	c #4F5B5E",
":.	c #7C8487",
"<.	c #A6ABAF",
"[.	c #C1C4C9",
"}.	c #364448",
"|.	c #687073",
"1.	c #93999D",
"2.	c #868D91",
"3.	c #546063",
"4.	c #3B4A4D",
"5.	c #586266",
"6.	c #7C8387",
"7.	c #A0A4A9",
"8.	c #BABDC2",
"9.	c #C3C6CC",
"0.	c #354547",
"a.	c #777E81",
"b.	c #ADB1B6",
"c.	c #A6ABB0",
"d.	c #7C8488",
"e.	c #5A6468",
"f.	c #364649",
"g.	c #3A494C",
"h.	c #4E595D",
"i.	c #7E8489",
"j.	c #A4A8AE",
"k.	c #B9BCC2",
"l.	c #797F83",
"m.	c #7A8083",
"n.	c #B3B7BC",
"o.	c #BBBFC4",
"p.	c #A8ADB1",
"q.	c #82898D",
"r.	c #525E61",
"s.	c #566064",
"t.	c #787F83",
"u.	c #A3A7AC",
"v.	c #AAAEB3",
"w.	c #757C80",
"x.	c #2D393C",
"y.	c #C4C8CD",
"z.	c #BCC0C5",
"A.	c #A2A7AC",
"B.	c #7E8689",
"C.	c #5A6467",
"D.	c #3C4A4D",
"E.	c #505B5F",
"F.	c #83898D",
"G.	c #90959A",
"H.	c #666E72",
"I.	c #2C383B",
"J.	c #1C2425",
"K.	c #C2C5CA",
"L.	c #A7ACB1",
"M.	c #7E8588",
"N.	c #515C5F",
"O.	c #3E4C4F",
"P.	c #3F4C50",
"Q.	c #495558",
"R.	c #324043",
"S.	c #A1A6AB",
"T.	c #81878B",
"U.	c #364648",
"V.	c #303D40",
"W.	c #C1C5CA",
"X.	c #BBBEC3",
"Y.	c #7B8285",
"Z.	c #535E61",
"`.	c #404D50",
" +	c #374548",
".+	c #6E7679",
"++	c #A3A8AD",
"@+	c #A5A9AE",
"#+	c #858B8F",
"$+	c #596366",
"%+	c #171E20",
"&+	c #5E676B",
"*+	c #899094",
"=+	c #ACB0B5",
"-+	c #92979B",
";+	c #606A6D",
">+	c #767D81",
",+	c #676F72",
"'+	c #182021",
")+	c #151C1D",
"!+	c #273235",
"                                                                                      ",
"                                                                                      ",
"                                                                                      ",
"                                                                                      ",
"                                                                                      ",
"                                                                                      ",
"                                                                                      ",
". . . . . . . . . . . . . . . . . . . . . . . . . . . . . . . . . . . . . . . . . . . ",
"+ + + + + + + + + + + + + + + + + + + + + + + + + + + + + + + + + + + + + + + + + + + ",
"+ + + + + + + + + + + + + + + @ . . . . # # . . . . @ + + + + + + + + + + + + + + + + ",
"+ + + + + + + + + + + + + $ % & * = - ; > > ; - = * & % $ + + + + + + + + + + + + + + ",
"+ + + + + + + + + + + + + , ' ) ! ~ { ] ^ ^ ] { ~ ! ) ' , + + + + + + + + + + + + + + ",
"+ + + + + + + + + + % / ( _ : < [ } | 1 2 2 1 | } [ < : _ 3 / % + + + + + + + + + + + ",
"+ + + + + + + + + % = 4 5 6 7 8 9 0 2 a b b a 2 0 9 8 7 6 5 _ = % + + + + + + + + + + ",
"+ + + + + + + + c 3 d e f 0 b b b b b b b b b b b b b b 0 f e d ( c + + + + + + + + + ",
"+ + + + + + + g h i j k 2 b b b b b b b b b b b b b b b b 2 k j l m g + + + + + + + + ",
"+ + + + + + c h i j k b b b b b b b b b b b b b b b b b b b b k j i m c + + + + + + + ",
"+ + + + + % 3 i j n b b b b b b b b b b b b b b b b b b b b b b n 6 o ( % + + + + + + ",
"+ + + + % = d j k b b b b b b b b b b b b b b b b b b b b b b b b 9 6 p q % + + + + + ",
"+ + + + / _ e k b b b b b b b b b b b 2 0 0 r 0 r 0 s 2 b b b b b b 9 t u / + + + + + ",
"+ + + + 3 5 f 2 b b b b b b b b b b b b v 2 2 2 2 2 v b b b b b b b 2 f 5 ( + + + + + ",
"+ + $ , _ 6 0 b b b b b b b b b w x y z A B C C C D E F G b b b b b b 0 6 _ , $ + + + ",
"+ + % ' : 7 b b b b b b b b b v H I J K L M N N O P Q R F b 2 b b b b b 7 S ' % + + + ",
"+ @ & ) < 8 b b b b b b b b v 2 w T U V W X Y Z ` Y  .Q E v s b b b b b 8 ..) & @ + + ",
"+ . * ! [ 9 b b b b b b b w H w b b +.@.#.$. .%.Y Y Y P D 2 0 b b b b b 9 [ &.* . + + ",
"+ . = *.} n b b b b b b b =.+.-.b 2 b x ;.>.,.'.).Y ` O C 2 r b b b b b 0 !.~ = . + + ",
"+ . - { ~.2 b b b b b b b {.].^./.w b b (._.:.<.'.[.Z N C 2 0 b b b b b 2 | { - . + + ",
"+ . ; ] 1 }.b b b b b s b |.1.2.3.4.b 2 b 4.5.6.7.8.9.N C 2 r b b b b b a 1 ] ; . + + ",
"+ # > ^ 2 b b b b b b 0 0.a.b.c.d.e.+.f.b b g.h.i.j.k.P l.2 0 b b b b b b n ^ > # + + ",
"+ # > ^ 2 b b b b b b 0 2 m.n.o.p.q.r.T b b b -.s.t.u.v.w.v 0 b b b b b b n x.; . + + ",
"+ . ; ] 1 }.b b b b b r 2 C N y.z.A.B.C.D.b 2 b H E.F.G.H.b 2 b b b b b 2 9 I.J.. + + ",
"+ . - { ~.2 b b b b b 0 2 C N Z K. .L.M.N.O.b b b P.;.J Q.b b b b b b b 2 R.{ - . + + ",
"+ . = *.} n b b b b b r 2 C O ` Y ).8.S.T.5.g.b 2 U.T I x b b b b b b b 0 V.i = . + + ",
"+ . * ! [ 9 b b b b b 0 2 D P Y Y Y W.X.<.Y.Z.`. +b w H w b b b b b b b 9 [ &.* . + + ",
"+ @ & ) < 8 b b b b b s v .+++ .Y ` Z Y  .@+#+$+-.w 2 v b b b b b b b b 8 ..) %+@ + + ",
"+ + % ' : 7 b b b b b 2 b &+*+++P O N N M =+-+;++.H v b b b b b b b b b 7 S ' % + + + ",
"+ + $ , _ 6 0 b b b b b b G &+.+D C C C B >+,+y =.w b b b b b b b b b 0 6 _ , $ + + + ",
"+ + + + ( 5 f 2 b b b b b b b v 2 2 2 2 2 v b b b b b b b b b b b b 2 f 5 ( + + + + + ",
"+ + + + / 4 e k b b b b b b 2 s 0 r 0 r 0 0 2 b b b b b b b b b b b 9 t u '++ + + + + ",
"+ + + + % = d j k b b b b b b b b b b b b b b b b b b b b b b b b 9 6 ! q )++ + + + + ",
"+ + + + + % ( l j n b b b b b b b b b b b b b b b b b b b b b b n 6 !+3 )++ + + + + + ",
"+ + + + + + c m i 6 9 b b b b b b b b b b b b b b b b b b b b 9 6 i m c + + + + + + + ",
"+ + + + + + + g m o 6 9 2 b b b b b b b b b b b b b b b b 2 9 6 o m g + + + + + + + + ",
"+ + + + + + + + c ( p t f 0 b b b b b b b b b b b b b b 0 f t ! ( c + + + + + + + + + ",
"+ + + + + + + + + % q u 5 6 7 8 9 0 2 2 b b 2 2 0 9 8 7 6 5 u q )++ + + + + + + + + + ",
"+ + + + + + + + + + % / ( _ S ..[ V.R.9 2 2 9 R.V.[ ..S _ ( '+)++ + + + + + + + + + + ",
"+ + + + + + + + + + + + + , ' ) &.i { ] ^ ^ ] { i &.) ' , + + + + + + + + + + + + + + ",
"+ + + + + + + + + + + + + $ % %+* = - ; > > ; - = * %+% $ + + + + + + + + + + + + + + ",
"+ + + + + + + + + + + + + + + @ . . . . # # . . . . @ + + + + + + + + + + + + + + + + ",
"+ + + + + + + + + + + + + + + + + + + + + + + + + + + + + + + + + + + + + + + + + + + ",
"+ + + + + + + + + + + + + + + + + + + + + + + + + + + + + + + + + + + + + + + + + + + ",
"+ + + + + + + + + + + + + + + + + + + + + + + + + + + + + + + + + + + + + + + + + + + ",
"+ + + + + + + + + + + + + + + + + + + + + + + + + + + + + + + + + + + + + + + + + + + ",
"+ + + + + + + + + + + + + + + + + + + + + + + + + + + + + + + + + + + + + + + + + + + ",
"                                                                                      ",
"                                                                                      ",
"                                                                                      ",
"                                                                                      "};
