/* XPM */
static char * maximize_active_xpm[] = {
"43 58 134 2",
"  	c #141A1B",
". 	c #2B3031",
"+ 	c #1D2223",
"@ 	c #181B1C",
"# 	c #221F20",
"$ 	c #242821",
"% 	c #504230",
"& 	c #4E5731",
"* 	c #576136",
"= 	c #5D6D39",
"- 	c #5B7639",
"; 	c #556134",
"> 	c #161B1C",
", 	c #222720",
"' 	c #2B5131",
") 	c #507235",
"! 	c #55943C",
"~ 	c #47A93B",
"{ 	c #51B03E",
"] 	c #46B53C",
"^ 	c #3DB83B",
"/ 	c #231F21",
"( 	c #503F30",
"_ 	c #576C36",
": 	c #509F3B",
"< 	c #3BB43A",
"[ 	c #35BA3A",
"} 	c #31BB3A",
"| 	c #232721",
"1 	c #4C5230",
"2 	c #568B3A",
"3 	c #50B13E",
"4 	c #4C5C30",
"5 	c #4F9C3C",
"6 	c #39B93B",
"7 	c #4C5930",
"8 	c #504030",
"9 	c #50963A",
"0 	c #537836",
"a 	c #42B63B",
"b 	c #18241C",
"c 	c #2B5A31",
"d 	c #48A73B",
"e 	c #33BB3A",
"f 	c #2FB038",
"g 	c #34383A",
"h 	c #3E4244",
"i 	c #2A2F30",
"j 	c #292C2E",
"k 	c #2C8834",
"l 	c #498B37",
"m 	c #36B83A",
"n 	c #303536",
"o 	c #494E50",
"p 	c #181D1E",
"q 	c #2D3233",
"r 	c #4C4D30",
"s 	c #4AA53B",
"t 	c #303436",
"u 	c #4A4E51",
"v 	c #4A6D34",
"w 	c #3AB53A",
"x 	c #363A3C",
"y 	c #45494B",
"z 	c #4D8537",
"A 	c #3BB93B",
"B 	c #2EA436",
"C 	c #323638",
"D 	c #313537",
"E 	c #333739",
"F 	c #44484B",
"G 	c #538B39",
"H 	c #36393B",
"I 	c #4B4F52",
"J 	c #4C4F53",
"K 	c #383B3E",
"L 	c #333839",
"M 	c #141E1B",
"N 	c #499D39",
"O 	c #34BA3A",
"P 	c #424648",
"Q 	c #505356",
"R 	c #35383B",
"S 	c #313538",
"T 	c #5A5E61",
"U 	c #4B4E51",
"V 	c #4F5356",
"W 	c #3F4245",
"X 	c #4C9939",
"Y 	c #4F5355",
"Z 	c #35393B",
"` 	c #333638",
" .	c #4F5255",
"..	c #4D5154",
"+.	c #2F3335",
"@.	c #478035",
"#.	c #4C4F52",
"$.	c #414547",
"%.	c #4E5254",
"&.	c #4C6132",
"*.	c #3EB13B",
"=.	c #45494C",
"-.	c #243A22",
";.	c #439A38",
">.	c #33BA3A",
",.	c #393D3F",
"'.	c #2D7D35",
").	c #45484C",
"!.	c #223A22",
"~.	c #479838",
"{.	c #36BA3A",
"].	c #1A3720",
"^.	c #4C5F31",
"/.	c #3EB03A",
"(.	c #32BB3A",
"_.	c #3DB03A",
":.	c #222320",
"<.	c #467D34",
"[.	c #3AB33A",
"}.	c #233A22",
"|.	c #458234",
"1.	c #458134",
"2.	c #3BB33A",
"3.	c #459D38",
"4.	c #37B73A",
"5.	c #2E8135",
"6.	c #3EA639",
"7.	c #38B73A",
"8.	c #4B6733",
"9.	c #448B35",
"0.	c #459A38",
"a.	c #43A639",
"b.	c #3EAD39",
"c.	c #141F1B",
"                                                                                      ",
". . . . . . . . . . . . . . . . . . . . . . . . . . . . . . . . . . . . . . . . . . . ",
"+ + + + + + + + + + + + + + + + + + + + + + + + + + + + + + + + + + + + + + + + + + + ",
"@ @ @ @ @ @ @ @ @ @ @ @ @ @ @ @ @ @ @ @ @ @ @ @ @ @ @ @ @ @ @ @ @ @ @ @ @ @ @ @ @ @ @ ",
"                                                                                      ",
"                                                                                      ",
"                                                                                      ",
"                                                                                      ",
"                                                                                      ",
"                                                                                      ",
"                                                                                      ",
"                                                                                      ",
"                                                                                      ",
"                                                                                      ",
"                            # $ % & * = - - = ; & % $ #                               ",
"                        > , ' ) ! ~ { ] ^ ^ ] { ~ ! ) ' , >                           ",
"                    > / ( _ : < [ } } } } } } } } [ < : _ ( # >                       ",
"                    | 1 2 3 [ } } } } } } } } } } } } [ 3 2 1 |                       ",
"                > | 4 5 6 } } } } } } } } } } } } } } } } 6 5 4 | >                   ",
"                / 7 5 6 } } } } } } } } } } } } } } } } } } 6 5 7 #                   ",
"              > 8 9 6 } } } } } } } } } } } } } } } } } } } } 6 9 8 >                 ",
"              , 0 a } } } } } } } } } } } } } } } } } } } } } } a 0 b                 ",
"            # c d e } } } } } } } } f g h i i i i g j k } } } } e d c #               ",
"            $ l m } } } } } } } } } n o i i p p p p q j } } } } } m l $               ",
"            r s e } } } } } } } } } t u i p p p p p p g } } } } } e s r               ",
"            v w } } } } } } } } } } } x y i p p p p p i } } } } } } w v               ",
"            z A } } } } } } B C D f } } E F i p p p p i } } } } } } A z               ",
"            G 6 } } } } } } H I J K } } } L i i p p p i } } } } } } 6 G               ",
"          M N O } } } } } } P p p Q R } } } S i i p T i } } } } } } O N M             ",
"          M N O } } } } } } U p D   V p } } } S i i i W } } } } } } O N M             ",
"          M X [ } } } } } } Y p p D p p p } } } Z i i ` } } } } } } [ X M             ",
"            z A } } } } } }  .D p p p p ..E } } } +.+.} } } } } } } A z               ",
"            @.m } } } } } } #.p p p p $.p %.x } } } } } } } } } } } m @.              ",
"            &.*.} } } } } } =.p p p p p p p u t } } } } } } } } } } *.&.              ",
"            -.;.>.} } } } } ,.,.p p Y p p p o n } } } } } } } } } >.;.-.              ",
"            # '.w } } } } } k ,.).#. .Y u $.g f } } } } } } } } } w '.#               ",
"              !.~.{.} } } } } } } } } } } } } } } } } } } } } } {.~.].                ",
"              > ^./.(.} } } } } } } } } } } } } } } } } } } } (._.^.>                 ",
"                :.<.[.(.} } } } } } } } } } } } } } } } } } (.[.<.:.                  ",
"                > }.|.[.(.} } } } } } } } } } } } } } } } (.[.|.!.>                   ",
"                    }.1.2.e } } } } } } } } } } } } } } e [.1.!.                      ",
"                    > :.^.3.4.(.} } } } } } } } } } (.4.3.^.:.>                       ",
"                        > ].5.6.7.(.(.(.} } (.(.(.4.6.5.].>                           ",
"                            # -.8.9.0.a.b.b.a.0.9.8.-.#                               ",
"                                      M c.c.M                                         ",
"                                                                                      ",
"                                                                                      ",
"                                                                                      ",
"                                                                                      ",
"                                                                                      ",
"                                                                                      ",
"                                                                                      ",
"                                                                                      ",
"                                                                                      ",
"                                                                                      ",
"                                                                                      ",
"                                                                                      ",
"                                                                                      "};
