/* XPM */
static char * shade_active_xpm[] = {
"43 58 89 1",
" 	c #141A1B",
".	c #454E4F",
"+	c #505A5A",
"@	c #505A5B",
"#	c #464F50",
"$	c #171D1D",
"%	c #444D4E",
"&	c #6A7777",
"*	c #7A8889",
"=	c #7B898A",
"-	c #6C797A",
";	c #454F4F",
">	c #3D4646",
",	c #616C6D",
"'	c #839292",
")	c #92A2A3",
"!	c #93A3A4",
"~	c #849495",
"{	c #636F70",
"]	c #3F4849",
"^	c #3C4445",
"/	c #606C6D",
"(	c #7D8B8C",
"_	c #94A4A5",
":	c #9FB0B1",
"<	c #9FB1B2",
"[	c #95A6A7",
"}	c #7F8E8F",
"|	c #636F71",
"1	c #3E4648",
"2	c #353D3E",
"3	c #586364",
"4	c #7A898A",
"5	c #90A1A2",
"6	c #9EAFB0",
"7	c #A4B6B7",
"8	c #9EB0B1",
"9	c #92A3A4",
"0	c #7D8C8D",
"a	c #5A6667",
"b	c #374040",
"c	c #353C3E",
"d	c #566062",
"e	c #748283",
"f	c #90A0A1",
"g	c #A2B4B5",
"h	c #A3B5B6",
"i	c #91A1A2",
"j	c #778585",
"k	c #596464",
"l	c #373F3F",
"m	c #323A3A",
"n	c #525D5E",
"o	c #748183",
"p	c #8C9B9D",
"q	c #9DAEAF",
"r	c #A5B7B8",
"s	c #9DAFB0",
"t	c #8D9D9E",
"u	c #768484",
"v	c #555F60",
"w	c #333B3C",
"x	c #2B3233",
"y	c #4C5758",
"z	c #6D7A7B",
"A	c #8C9C9D",
"B	c #9CADAE",
"C	c #6F7D7E",
"D	c #4F5A5B",
"E	c #303839",
"F	c #2A3233",
"G	c #4B5556",
"H	c #687576",
"I	c #839293",
"J	c #8F9E9F",
"K	c #8F9FA0",
"L	c #6A7778",
"M	c #4E5859",
"N	c #31393A",
"O	c #434C4D",
"P	c #545E5F",
"Q	c #5B6566",
"R	c #5A6566",
"S	c #5A6565",
"T	c #444E4E",
"U	c #32393A",
"V	c #8E9E9F",
"W	c #A6B8B9",
"X	c #7D8C8C",
"                                           ",
"                                           ",
"                                           ",
"                                           ",
"                                           ",
"                                           ",
"                                           ",
"                                           ",
"                                           ",
"                                           ",
"                                           ",
"                                           ",
"                                           ",
"                                           ",
"                                           ",
"                                           ",
"                                           ",
"                                           ",
"                                           ",
"                                           ",
"                                           ",
"                                           ",
"                   .+@#$                   ",
"                  %&*=-;                   ",
"                 >,')!~{]                  ",
"                ^/(_:<[}|1                 ",
"               2345677890ab                ",
"              cdef6g77h8ijkl               ",
"             mnopqrrrrrrstuvw              ",
"            xyzABg777777gqtCDE             ",
"            FGHIJKJJJJJJKJILME             ",
"             NOPQRSSSSSSRRPTw              ",
"            UMSRSSSSSSSSSSRSMU             ",
"            M(KKJVJJJJJJVJKK(M             ",
"            RfrWrrrrrrrrrrWrfR             ",
"            RfrWrrrrrrrrrrWrfR             ",
"            MXKfKKKKKKKKKKfKXM             ",
"            UMSRSSSSSSSSSSRSMU             ",
"                                           ",
"                                           ",
"                                           ",
"                                           ",
"                                           ",
"                                           ",
"                                           ",
"                                           ",
"                                           ",
"                                           ",
"                                           ",
"                                           ",
"                                           ",
"                                           ",
"                                           ",
"                                           ",
"                                           ",
"                                           ",
"                                           ",
"                                           "};
