/* XPM */
static char * shade_pressed_xpm[] = {
"43 58 91 1",
" 	c #141A1B",
".	c #141B1C",
"+	c #141C1C",
"@	c #141C1D",
"#	c #14191A",
"$	c #1B4D43",
"%	c #1D594D",
"&	c #1B4E44",
"*	c #1B4C42",
"=	c #227564",
"-	c #268773",
";	c #268874",
">	c #227766",
",	c #1A4E43",
"'	c #141D1D",
")	c #1A453C",
"!	c #206B5C",
"~	c #288F7A",
"{	c #2BA088",
"]	c #2BA189",
"^	c #27917C",
"/	c #206D5E",
"(	c #1A463E",
"_	c #14181A",
":	c #19433B",
"<	c #206A5B",
"[	c #268975",
"}	c #2BA28A",
"|	c #2DAD93",
"1	c #2DAE94",
"2	c #2BA38B",
"3	c #278B78",
"4	c #216D5E",
"5	c #19453D",
"6	c #141E1E",
"7	c #152624",
"8	c #1E6254",
"9	c #2A9E87",
"0	c #2EB398",
"a	c #2BA089",
"b	c #268976",
"c	c #1E6456",
"d	c #173630",
"e	c #152020",
"f	c #1E5F53",
"g	c #24806E",
"h	c #2A9D86",
"i	c #2DAC93",
"j	c #2EB197",
"k	c #2EB297",
"l	c #258370",
"m	c #1E6355",
"n	c #16312C",
"o	c #1D5C50",
"p	c #247F6D",
"q	c #299983",
"r	c #2DAB92",
"s	c #2EB499",
"t	c #2DAC92",
"u	c #2A9B84",
"v	c #25826F",
"w	c #1D5E51",
"x	c #1D564B",
"y	c #237968",
"z	c #2CAA91",
"A	c #2EB196",
"B	c #2DAB91",
"C	c #299A84",
"D	c #237B6A",
"E	c #1D554A",
"F	c #227463",
"G	c #27907A",
"H	c #299C84",
"I	c #299C85",
"J	c #27907B",
"K	c #227665",
"L	c #1D584C",
"M	c #1A4B42",
"N	c #1C5C4F",
"O	c #1D6455",
"P	c #1D6355",
"Q	c #1C5D4F",
"R	c #1A4D42",
"S	c #1B574A",
"T	c #141417",
"U	c #248974",
"V	c #299D85",
"W	c #141116",
"X	c #299D86",
"Y	c #2EB599",
"Z	c #258975",
"                                           ",
"                                           ",
"                                           ",
"                                           ",
"                                           ",
"                                           ",
"                                           ",
"                                           ",
"                                           ",
"                                           ",
"                                           ",
"                                           ",
"                                           ",
"                                           ",
"                                           ",
"                                           ",
"                                           ",
"                                           ",
"                                           ",
"                                           ",
"                                           ",
"                  .+@@+.                   ",
"                #  $%%&  #                 ",
"                #.*=-;>,+#                 ",
"              ##')!~{]^/('##               ",
"              _.:<[}|12345.#               ",
"             #678-9|00|abcd6##             ",
"            # efghij00k|9lmn #             ",
"            ' opqrsssssstuvwe6             ",
"          #  xyqzA000000ABCD%  #           ",
"          #  EFGHIHHHHHHIHJKL  #           ",
"            6 MNOOPPPPPPOOQRe6             ",
"          #  SPOPPPPPPPPPPOPS  #           ",
"          T SUIVHHHHHHHHHHVIUS T           ",
"          W OXsYssssssssssYsXO W           ",
"          W OXsYssssssssssYsXO W           ",
"          T SZVXVVVVVVVVVVXVZS T           ",
"          #  SPOPPPPPPPPPPOPS  #           ",
"                                           ",
"            #TWWWWWWWWWWWWWWT#             ",
"                                           ",
"                                           ",
"                                           ",
"                                           ",
"                                           ",
"                                           ",
"                                           ",
"                                           ",
"                                           ",
"                                           ",
"                                           ",
"                                           ",
"                                           ",
"                                           ",
"                                           ",
"                                           ",
"                                           ",
"                                           "};
