/* XPM */
static char * shade_toggled_inactive_xpm[] = {
"43 58 98 2",
"  	c #141A1B",
". 	c #13191A",
"+ 	c #0F1517",
"@ 	c #0C1214",
"# 	c #0B1213",
"$ 	c #0C1213",
"% 	c #101618",
"& 	c #4B5554",
"* 	c #5C6767",
"= 	c #5F6A6A",
"- 	c #5E6969",
"; 	c #121819",
"> 	c #0E1415",
", 	c #1A2121",
"' 	c #5E6A69",
") 	c #748180",
"! 	c #778584",
"~ 	c #768483",
"{ 	c #0D1315",
"] 	c #262C2D",
"^ 	c #626E6E",
"/ 	c #798786",
"( 	c #7C8B89",
"_ 	c #7B8988",
": 	c #12181A",
"< 	c #0E1416",
"[ 	c #717E7D",
"} 	c #748181",
"| 	c #73807F",
"1 	c #111718",
"2 	c #444D4D",
"3 	c #535E5D",
"4 	c #55605F",
"5 	c #545F5E",
"6 	c #2A3232",
"7 	c #3E4747",
"8 	c #4E5858",
"9 	c #586362",
"0 	c #596464",
"a 	c #586363",
"b 	c #4D5857",
"c 	c #3C4545",
"d 	c #374040",
"e 	c #4F5A59",
"f 	c #64706F",
"g 	c #748281",
"h 	c #758281",
"i 	c #707E7D",
"j 	c #636F6E",
"k 	c #4D5757",
"l 	c #2E3737",
"m 	c #14191B",
"n 	c #5B6766",
"o 	c #6C7978",
"p 	c #758282",
"q 	c #7A8887",
"r 	c #6B7877",
"s 	c #5A6565",
"t 	c #424B4B",
"u 	c #151B1C",
"v 	c #464F4F",
"w 	c #5A6665",
"x 	c #768383",
"y 	c #768382",
"z 	c #6A7777",
"A 	c #586464",
"B 	c #434D4E",
"C 	c #465050",
"D 	c #6E7B7A",
"E 	c #758382",
"F 	c #798686",
"G 	c #788685",
"H 	c #6D7A79",
"I 	c #5C6867",
"J 	c #454E4E",
"K 	c #4C5555",
"L 	c #616C6C",
"M 	c #6E7B7B",
"N 	c #5F6B6A",
"O 	c #4A5453",
"P 	c #101617",
"Q 	c #626E6D",
"R 	c #707D7C",
"S 	c #738180",
"T 	c #6F7C7B",
"U 	c #616D6C",
"V 	c #202727",
"W 	c #111617",
"X 	c #14191A",
"Y 	c #515C5B",
"Z 	c #687574",
"` 	c #505A5A",
" .	c #3D4645",
"..	c #525C5C",
"+.	c #3C4444",
"@.	c #111618",
"#.	c #141B1C",
"$.	c #141A1C",
"                                                                                      ",
"                                                                                      ",
"                                                                                      ",
"                                                                                      ",
"                                                                                      ",
"                                                                                      ",
"                                                                                      ",
"                                                                                      ",
"                                                                                      ",
"                                                                                      ",
"                                                                                      ",
"                                                                                      ",
"                                                                                      ",
"                                                                                      ",
"                                                                                      ",
"                                                                                      ",
"                                                                                      ",
"                            . . . . . . . . . . . . . . .                             ",
"                        . + @ # $ $ $ $ $ $ $ $ $ $ $ # @ + .                         ",
"                      .                                       .                       ",
"                    . %   & * = - - - - - - - - - - - = * &   % .                     ",
"                    ; > , ' ) ! ~ ~ ~ ~ ~ ~ ~ ~ ~ ~ ~ ! ) ' , > ;                     ",
"                    ; { ] ^ / ( _ _ _ _ _ _ _ _ _ _ _ ( / ^ ] { ;                     ",
"                    : <   * [ } | | | | | | | | | | | } [ *   < :                     ",
"                    . 1   2 3 4 5 5 5 5 5 5 5 5 5 5 5 4 3 2   1 .                     ",
"                      .         ] 6 6 6 6 6 6 6 6 6 ]         .                       ",
"                      .     7 8 9 0 a a a a a a a 0 9 b c     .                       ",
"                    . ;   d e f [ g g h h h h h g g i j k l   ; m                     ",
"                      .     2 n o p q _ q q q _ q g r s t     .                       ",
"                        u     v w r x / / / / / y z A B                               ",
"                        . 1     C - D E F q G h H I J     1 .                         ",
"                            u     K L M ~ / ~ H N O     u                             ",
"                            . P   ] k Q R S T U & V   W X                             ",
"                                      Y f Z j `                                       ",
"                                  1    .8 ..k +.  @.                                  ",
"                                                  m                                   ",
"                                      #.u $.  #.                                      ",
"                                          #.                                          ",
"                                                                                      ",
"                                                                                      ",
"                                                                                      ",
"                                                                                      ",
"                                                                                      ",
"                                                                                      ",
"                                                                                      ",
"                                                                                      ",
"                                                                                      ",
"                                                                                      ",
"                                                                                      ",
"                                                                                      ",
"                                                                                      ",
"                                                                                      ",
"                                                                                      ",
"                                                                                      ",
"                                                                                      ",
"                                                                                      ",
"                                                                                      ",
"                                                                                      "};
