/* XPM */
static char * shade_toggled_pressed_xpm[] = {
"43 58 28 1",
" 	c #141A1B",
".	c #13191A",
"+	c #0F1517",
"@	c #0C1214",
"#	c #0B1213",
"$	c #0C1213",
"%	c #101618",
"&	c #227564",
"*	c #121819",
"=	c #0E1415",
"-	c #1A2121",
";	c #2EB398",
">	c #0D1315",
",	c #262C2D",
"'	c #12181A",
")	c #0E1416",
"!	c #111718",
"~	c #1A3E38",
"{	c #14191B",
"]	c #151B1C",
"^	c #34685C",
"/	c #101617",
"(	c #202727",
"_	c #111617",
":	c #14191A",
"<	c #111618",
"[	c #141B1C",
"}	c #141A1C",
"                                           ",
"                                           ",
"                                           ",
"                                           ",
"                                           ",
"                                           ",
"                                           ",
"                                           ",
"                                           ",
"                                           ",
"                                           ",
"                                           ",
"                                           ",
"                                           ",
"                                           ",
"                                           ",
"                                           ",
"              ...............              ",
"            .+@#$$$$$$$$$$$#@+.            ",
"           .                   .           ",
"          .% &&&&&&&&&&&&&&&&& %.          ",
"          *=-&;;;;;;;;;;;;;;;&-=*          ",
"          *>,&;;;;;;;;;;;;;;;&,>*          ",
"          ') &;;;;;;;;;;;;;;;& )'          ",
"          .! &&&&&&&&&&&&&&&&& !.          ",
"           .    ~~~~~~~~~~~    .           ",
"           .  ~&&&&&&&&&&&&&~  .           ",
"          .* ~&&;;;;;;;;;;;&&~ *{          ",
"           .  ~&;;;;;;;;;;;&~  .           ",
"            ]  ^&;;;;;;;;;&~               ",
"            .!  &&;;;;;;;&~  !.            ",
"              ]  &&;;;;;&&  ]              ",
"              ./ ,&&;;;&&( _:              ",
"                   &&;&&                   ",
"                 ! ~&&&~ <                 ",
"                         {                 ",
"                   []} [                   ",
"                     [                     ",
"                                           ",
"                                           ",
"                                           ",
"                                           ",
"                                           ",
"                                           ",
"                                           ",
"                                           ",
"                                           ",
"                                           ",
"                                           ",
"                                           ",
"                                           ",
"                                           ",
"                                           ",
"                                           ",
"                                           ",
"                                           ",
"                                           ",
"                                           "};
