/* XPM */
static char * shade_toggled_active_xpm[] = {
"43 58 89 1",
" 	c #141A1B",
".	c #32393A",
"+	c #4E5859",
"@	c #5A6565",
"#	c #5A6566",
"$	c #7D8C8C",
"%	c #8F9FA0",
"&	c #90A0A1",
"*	c #A5B7B8",
"=	c #A6B8B9",
"-	c #7D8B8C",
";	c #8F9E9F",
">	c #8E9E9F",
",	c #333B3C",
"'	c #444E4E",
")	c #545E5F",
"!	c #5B6566",
"~	c #434C4D",
"{	c #31393A",
"]	c #303839",
"^	c #6A7778",
"/	c #839293",
"(	c #687576",
"_	c #4B5556",
":	c #2A3233",
"<	c #4F5A5B",
"[	c #6F7D7E",
"}	c #8D9D9E",
"|	c #9DAEAF",
"1	c #A2B4B5",
"2	c #A4B6B7",
"3	c #9CADAE",
"4	c #8C9C9D",
"5	c #6D7A7B",
"6	c #4C5758",
"7	c #2B3233",
"8	c #555F60",
"9	c #768484",
"0	c #9DAFB0",
"a	c #8C9B9D",
"b	c #748183",
"c	c #525D5E",
"d	c #323A3A",
"e	c #373F3F",
"f	c #596464",
"g	c #778585",
"h	c #91A1A2",
"i	c #9EB0B1",
"j	c #A3B5B6",
"k	c #9EAFB0",
"l	c #748283",
"m	c #566062",
"n	c #353C3E",
"o	c #374040",
"p	c #5A6667",
"q	c #7D8C8D",
"r	c #92A3A4",
"s	c #90A1A2",
"t	c #7A898A",
"u	c #586364",
"v	c #353D3E",
"w	c #3E4648",
"x	c #636F71",
"y	c #7F8E8F",
"z	c #95A6A7",
"A	c #9FB1B2",
"B	c #9FB0B1",
"C	c #94A4A5",
"D	c #606C6D",
"E	c #3C4445",
"F	c #3F4849",
"G	c #636F70",
"H	c #849495",
"I	c #93A3A4",
"J	c #92A2A3",
"K	c #839292",
"L	c #616C6D",
"M	c #3D4646",
"N	c #454F4F",
"O	c #6C797A",
"P	c #7B898A",
"Q	c #7A8889",
"R	c #6A7777",
"S	c #444D4E",
"T	c #171D1D",
"U	c #464F50",
"V	c #505A5B",
"W	c #505A5A",
"X	c #454E4F",
"                                           ",
"                                           ",
"                                           ",
"                                           ",
"                                           ",
"                                           ",
"                                           ",
"                                           ",
"                                           ",
"                                           ",
"                                           ",
"                                           ",
"                                           ",
"                                           ",
"                                           ",
"                                           ",
"                                           ",
"                                           ",
"                                           ",
"                                           ",
"            .+@#@@@@@@@@@@#@+.             ",
"            +$%&%%%%%%%%%%&%$+             ",
"            #&*=**********=*&#             ",
"            #&*=**********=*&#             ",
"            +-%%;>;;;;;;>;%%-+             ",
"            .+@#@@@@@@@@@@#@+.             ",
"             ,')##@@@@@@#!)~{              ",
"            ]+^/;%;;;;;;%;/(_:             ",
"            ]<[}|1222222134567             ",
"             ,89}0******|abcd              ",
"              efghij221k&lmn               ",
"               opqri22kstuv                ",
"                wxyzABC-DE                 ",
"                 FGHIJKLM                  ",
"                  NOPQRS                   ",
"                  TUVWX                    ",
"                                           ",
"                                           ",
"                                           ",
"                                           ",
"                                           ",
"                                           ",
"                                           ",
"                                           ",
"                                           ",
"                                           ",
"                                           ",
"                                           ",
"                                           ",
"                                           ",
"                                           ",
"                                           ",
"                                           ",
"                                           ",
"                                           ",
"                                           ",
"                                           ",
"                                           "};
