/* XPM */
static char * shade_inactive_xpm[] = {
"43 58 98 2",
"  	c #141A1B",
". 	c #141B1C",
"+ 	c #141A1C",
"@ 	c #151B1C",
"# 	c #14191B",
"$ 	c #111618",
"% 	c #3C4444",
"& 	c #4D5757",
"* 	c #525C5C",
"= 	c #4E5858",
"- 	c #3D4645",
"; 	c #111718",
"> 	c #505A5A",
", 	c #636F6E",
"' 	c #687574",
") 	c #64706F",
"! 	c #515C5B",
"~ 	c #14191A",
"{ 	c #111617",
"] 	c #202727",
"^ 	c #4B5554",
"/ 	c #616D6C",
"( 	c #6F7C7B",
"_ 	c #738180",
": 	c #707D7C",
"< 	c #626E6D",
"[ 	c #262C2D",
"} 	c #101617",
"| 	c #13191A",
"1 	c #4A5453",
"2 	c #5F6B6A",
"3 	c #6D7A79",
"4 	c #768483",
"5 	c #798786",
"6 	c #6E7B7B",
"7 	c #616C6C",
"8 	c #4C5555",
"9 	c #454E4E",
"0 	c #5C6867",
"a 	c #758281",
"b 	c #788685",
"c 	c #7A8887",
"d 	c #798686",
"e 	c #758382",
"f 	c #6E7B7A",
"g 	c #5E6969",
"h 	c #465050",
"i 	c #434D4E",
"j 	c #586464",
"k 	c #6A7777",
"l 	c #768382",
"m 	c #768383",
"n 	c #6B7877",
"o 	c #5A6665",
"p 	c #464F4F",
"q 	c #424B4B",
"r 	c #5A6565",
"s 	c #748281",
"t 	c #7B8988",
"u 	c #758282",
"v 	c #6C7978",
"w 	c #5B6766",
"x 	c #444D4D",
"y 	c #121819",
"z 	c #2E3737",
"A 	c #707E7D",
"B 	c #717E7D",
"C 	c #4F5A59",
"D 	c #374040",
"E 	c #3C4545",
"F 	c #4D5857",
"G 	c #586362",
"H 	c #596464",
"I 	c #586363",
"J 	c #3E4747",
"K 	c #2A3232",
"L 	c #535E5D",
"M 	c #55605F",
"N 	c #545F5E",
"O 	c #12181A",
"P 	c #0E1416",
"Q 	c #5C6767",
"R 	c #748181",
"S 	c #73807F",
"T 	c #0D1315",
"U 	c #626E6E",
"V 	c #7C8B89",
"W 	c #0E1415",
"X 	c #1A2121",
"Y 	c #5E6A69",
"Z 	c #748180",
"` 	c #778584",
" .	c #101618",
"..	c #5F6A6A",
"+.	c #0F1517",
"@.	c #0C1214",
"#.	c #0B1213",
"$.	c #0C1213",
"                                                                                      ",
"                                                                                      ",
"                                                                                      ",
"                                                                                      ",
"                                                                                      ",
"                                                                                      ",
"                                                                                      ",
"                                                                                      ",
"                                                                                      ",
"                                                                                      ",
"                                                                                      ",
"                                                                                      ",
"                                                                                      ",
"                                                                                      ",
"                                                                                      ",
"                                                                                      ",
"                                                                                      ",
"                                                                                      ",
"                                                                                      ",
"                                        .                                             ",
"                                    .   + @ .                                         ",
"                                #                                                     ",
"                                $   % & * = -   ;                                     ",
"                                    > , ' ) !                                         ",
"                          ~ {   ] ^ / ( _ : < & [   } |                               ",
"                          @     1 2 3 4 5 4 6 7 8     @                               ",
"                      | ;     9 0 3 a b c d e f g h     ; |                           ",
"                            i j k l 5 5 5 5 5 m n o p     @                           ",
"                    |     q r n s c t c c c t c u v w x     |                         ",
"                  # y   z & , A s s a a a a a s s B ) C D   y |                       ",
"                    |     E F G H I I I I I I I H G = J     |                         ",
"                    |         [ K K K K K K K K K [         |                         ",
"                  | ;   x L M N N N N N N N N N N N M L x   ; |                       ",
"                  O P   Q B R S S S S S S S S S S S R B Q   P O                       ",
"                  y T [ U 5 V t t t t t t t t t t t V 5 U [ T y                       ",
"                  y W X Y Z ` 4 4 4 4 4 4 4 4 4 4 4 ` Z Y X W y                       ",
"                  |  .  ^ Q ..g g g g g g g g g g g ..Q ^    .|                       ",
"                    |                                       |                         ",
"                      | +.@.#.$.$.$.$.$.$.$.$.$.$.$.#.@.+.|                           ",
"                          | | | | | | | | | | | | | | |                               ",
"                                                                                      ",
"                                                                                      ",
"                                                                                      ",
"                                                                                      ",
"                                                                                      ",
"                                                                                      ",
"                                                                                      ",
"                                                                                      ",
"                                                                                      ",
"                                                                                      ",
"                                                                                      ",
"                                                                                      ",
"                                                                                      ",
"                                                                                      ",
"                                                                                      ",
"                                                                                      ",
"                                                                                      ",
"                                                                                      "};
