/* XPM */
static char * stick_active_xpm[] = {
"43 58 19 1",
" 	c #141A1B",
".	c #13191A",
"+	c #0D1415",
"@	c #0A1112",
"#	c #4E5859",
"$	c #5A6566",
"%	c #7D8C8C",
"&	c #90A0A1",
"*	c #0B1112",
"=	c #5A6565",
"-	c #8F9FA0",
";	c #A5B7B8",
">	c #A6B8B9",
",	c #000204",
"'	c #596364",
")	c #738081",
"!	c #95A6A7",
"~	c #9FB0B1",
"{	c #A4B6B7",
"                                           ",
"                                           ",
"                                           ",
"                                           ",
"                                           ",
"                                           ",
"                                           ",
"                                           ",
"                                           ",
"                                           ",
"                                           ",
"                                           ",
"                                           ",
"                                           ",
"                                           ",
"                                           ",
"                                           ",
"                                           ",
"                  .+@@+.                   ",
"                                           ",
"                .  #$$#  .                 ",
"                + #%&&%# +                 ",
"                * =-;;-= *                 ",
"                @ $&>>&$ @                 ",
"            .+*@,*'-;;-'*,@*+.             ",
"                * =-;;-= *                 ",
"          .  #=$'=)!;;!)='$=#  .           ",
"          + #%-&--!~{{~!--&-%# +           ",
"          @ $&;>;;;{{{{;;;>;&$ @           ",
"          @ $&;>;;;{{{{;;;>;&$ @           ",
"          + #%-&--!~{{~!--&-%# +           ",
"          .  #=$'=)!;;!)='$=#  .           ",
"                * =-;;-= *                 ",
"            .+*@,*'-;;-'*,@*+.             ",
"                @ $&>>&$ @                 ",
"                * =-;;-= *                 ",
"                + #%&&%# +                 ",
"                .  #$$#  .                 ",
"                                           ",
"                  .+@@+.                   ",
"                                           ",
"                                           ",
"                                           ",
"                                           ",
"                                           ",
"                                           ",
"                                           ",
"                                           ",
"                                           ",
"                                           ",
"                                           ",
"                                           ",
"                                           ",
"                                           ",
"                                           ",
"                                           ",
"                                           ",
"                                           "};
