/* XPM */
static char * stick_pressed_xpm[] = {
"43 58 19 1",
" 	c #141A1B",
".	c #14181A",
"+	c #141417",
"@	c #141116",
"#	c #173832",
"$	c #1B574A",
"%	c #1D6455",
"&	c #258975",
"*	c #299D86",
"=	c #1D6355",
"-	c #299D85",
";	c #2EB499",
">	c #2EB599",
",	c #13040F",
"'	c #1D6253",
")	c #227E6B",
"!	c #2AA38A",
"~	c #2DAE93",
"{	c #2EB398",
"                                           ",
"                                           ",
"                                           ",
"                                           ",
"                                           ",
"                                           ",
"                                           ",
"                                           ",
"                                           ",
"                                           ",
"                                           ",
"                                           ",
"                                           ",
"                                           ",
"                                           ",
"                                           ",
"                                           ",
"                                           ",
"                  .+@@+.                   ",
"                                           ",
"                . #$%%$# .                 ",
"                + $&**&$ +                 ",
"                @ =-;;-= @                 ",
"                @ %*>>*% @                 ",
"            .+@@,@'-;;-'@,@@+.             ",
"                @ =-;;-= @                 ",
"          . #$=%'=)!;;!)='%=$# .           ",
"          + $&-*--!~{{~!--*-&$ +           ",
"          @ %*;>;;;{{{{;;;>;*% @           ",
"          @ %*;>;;;{{{{;;;>;*% @           ",
"          + $&-*--!~{{~!--*-&$ +           ",
"          . #$=%'=)!;;!)='%=$# .           ",
"                @ =-;;-= @                 ",
"            .+@@,@'-;;-'@,@@+.             ",
"                @ %*>>*% @                 ",
"                @ =-;;-= @                 ",
"                + $&**&$ +                 ",
"                . #$%%$# .                 ",
"                                           ",
"                  .+@@+.                   ",
"                                           ",
"                                           ",
"                                           ",
"                                           ",
"                                           ",
"                                           ",
"                                           ",
"                                           ",
"                                           ",
"                                           ",
"                                           ",
"                                           ",
"                                           ",
"                                           ",
"                                           ",
"                                           ",
"                                           ",
"                                           "};
