/* XPM */
static char * stick_toggled_active_xpm[] = {
"43 58 75 1",
" 	c #141A1B",
".	c #13191A",
"+	c #121819",
"@	c #0F1516",
"#	c #0D1314",
"$	c #0C1213",
"%	c #2F3637",
"&	c #464F50",
"*	c #515B5C",
"=	c #566061",
"-	c #465050",
";	c #363F3F",
">	c #131A1B",
",	c #3C4545",
"'	c #5B6666",
")	c #717E7F",
"!	c #829091",
"~	c #8A999A",
"{	c #727F80",
"]	c #5C6868",
"^	c #3E4748",
"/	c #4D5758",
"(	c #657172",
"_	c #7B8889",
":	c #8C9B9C",
"<	c #99A9AA",
"[	c #9FB0B1",
"}	c #99AAAB",
"|	c #8C9C9D",
"1	c #7B8A8B",
"2	c #667374",
"3	c #4E595A",
"4	c #768586",
"5	c #96A7A8",
"6	c #9CAEAF",
"7	c #A1B2B3",
"8	c #A3B5B6",
"9	c #A1B3B4",
"0	c #9DAEAF",
"a	c #8D9D9E",
"b	c #778687",
"c	c #4D5858",
"d	c #9EB0B1",
"e	c #A4B6B7",
"f	c #9FB1B2",
"g	c #8C9D9E",
"h	c #3B4445",
"i	c #7A8889",
"j	c #596566",
"k	c #2E3637",
"l	c #9CADAE",
"m	c #8B9A9B",
"n	c #707D7E",
"o	c #454E4F",
"p	c #98A9AA",
"q	c #818F90",
"r	c #505A5B",
"s	c #889899",
"t	c #556061",
"u	c #A0B2B3",
"v	c #97A9AA",
"w	c #808F90",
"x	c #8A9A9B",
"y	c #6F7D7D",
"z	c #A3B4B5",
"A	c #96A6A7",
"B	c #798888",
"C	c #596565",
"D	c #2E3636",
"E	c #647071",
"F	c #3B4444",
"G	c #768485",
"H	c #4C5657",
"I	c #899899",
"J	c #707D7D",
"                                           ",
"                                           ",
"                                           ",
"                                           ",
"                                           ",
"                                           ",
"                                           ",
"                                           ",
"                                           ",
"                                           ",
"                                           ",
"                                           ",
"                                           ",
"                                           ",
"                                           ",
"                                           ",
"                                           ",
"                                           ",
"                .+@#$$#@+.                 ",
"                                           ",
"              .  %&*==*-;  >               ",
"                ,')!~~!{]^                 ",
"            .  /(_:<[[}|123  .             ",
"              /4|56788905abc               ",
"          .  ,(|d8eeeeee8fg(h  .           ",
"          + %'_58eeeeeeee85ijk +           ",
"          @ &):6eeeeeeeeeelmno @           ",
"          # *!<7eeeeeeeeee7pqr #           ",
"          $ =~[8eeeeeeeeee8dst $           ",
"          $ =~[8eeeeeeeeee8dst $           ",
"          # *!}9eeeeeeeeeeuvwr #           ",
"          @ -{|0eeeeeeeeeelxyo @           ",
"          + ;]158eeeeeeeezABCD +           ",
"          .  ^2af8eeeeeezd:EF  .           ",
"              3bg5l7887lA:GH >             ",
"            >  c(impddpmBEH  .             ",
"                hjnqIIqJCF                 ",
"              .  korttroD >.               ",
"                                           ",
"                .+@#$$#@+.                 ",
"                                           ",
"                                           ",
"                                           ",
"                                           ",
"                                           ",
"                                           ",
"                                           ",
"                                           ",
"                                           ",
"                                           ",
"                                           ",
"                                           ",
"                                           ",
"                                           ",
"                                           ",
"                                           ",
"                                           ",
"                                           "};
