/* XPM */
static char * stick_prelight_xpm[] = {
"43 58 17 1",
" 	c #141A1B",
".	c #13191A",
"+	c #121819",
"@	c #101617",
"#	c #3A4242",
"$	c #434C4B",
"%	c #5C6867",
"&	c #6A7776",
"*	c #424B4B",
"=	c #6A7675",
"-	c #7A8887",
";	c #0A1112",
">	c #414A4A",
",	c #555F5F",
"'	c #6E7B7A",
")	c #798786",
"!	c #758382",
"                                           ",
"                                           ",
"                                           ",
"                                           ",
"                                           ",
"                                           ",
"                                           ",
"                                           ",
"                                           ",
"                                           ",
"                                           ",
"                                           ",
"                                           ",
"                                           ",
"                                           ",
"                                           ",
"                                           ",
"                                           ",
"                  .+@@+.                   ",
"                                           ",
"                .  #$$#  .                 ",
"                + #%&&%# +                 ",
"                @ *=--=* @                 ",
"                @ $&--&$ @                 ",
"            .+@@;@>=--=>@;@@+.             ",
"                @ *=--=* @                 ",
"          .  #*$>*,'))',*>$*#  .           ",
"          + #%=&=='!))!'==&=%# +           ",
"          @ $&----))))))----&$ @           ",
"          @ $&----))))))----&$ @           ",
"          + #%=&=='!))!'==&=%# +           ",
"          .  #*$>*,'))',*>$*#  .           ",
"                @ *=--=* @                 ",
"            .+@@;@>=--=>@;@@+.             ",
"                @ $&--&$ @                 ",
"                @ *=--=* @                 ",
"                + #%&&%# +                 ",
"                .  #$$#  .                 ",
"                                           ",
"                  .+@@+.                   ",
"                                           ",
"                                           ",
"                                           ",
"                                           ",
"                                           ",
"                                           ",
"                                           ",
"                                           ",
"                                           ",
"                                           ",
"                                           ",
"                                           ",
"                                           ",
"                                           ",
"                                           ",
"                                           ",
"                                           ",
"                                           "};
