/* XPM */
static char * stick_toggled_pressed_xpm[] = {
"43 58 73 1",
" 	c #141A1B",
".	c #14191A",
"+	c #141719",
"@	c #141518",
"#	c #141317",
"$	c #141216",
"%	c #162A27",
"&	c #183E38",
"*	c #1A4E44",
"=	c #1C594D",
"-	c #1D5F51",
";	c #1C5A4D",
">	c #194038",
",	c #162C28",
"'	c #151C1D",
")	c #141C1D",
"!	c #162423",
"~	c #1A433C",
"{	c #206457",
"]	c #247C6B",
"^	c #278E79",
"/	c #28967F",
"(	c #247D6B",
"_	c #206658",
":	c #1A463E",
"<	c #162827",
"[	c #151E1E",
"}	c #173731",
"|	c #1C554A",
"1	c #216F60",
"2	c #268673",
"3	c #2A9882",
"4	c #2CA78E",
"5	c #2DAD93",
"6	c #2A9982",
"7	c #268874",
"8	c #217161",
"9	c #1C574C",
"0	c #173832",
"a	c #24826F",
"b	c #299983",
"c	c #2BA48C",
"d	c #2DAB91",
"e	c #2EAF95",
"f	c #2EB297",
"g	c #2EB095",
"h	c #299A84",
"i	c #248370",
"j	c #1C564A",
"k	c #2EB398",
"l	c #2DAE94",
"m	c #299A83",
"n	c #1A433B",
"o	c #2BA48B",
"p	c #268672",
"q	c #206356",
"r	c #183E37",
"s	c #299882",
"t	c #247B69",
"u	c #1A4D43",
"v	c #2DAF95",
"w	c #2CA68D",
"x	c #268D78",
"y	c #1C594C",
"z	c #27957F",
"A	c #1C5E51",
"B	c #2BA68D",
"C	c #1B594C",
"D	c #2CAB91",
"E	c #237B69",
"F	c #258672",
"G	c #1F6356",
"H	c #216F5F",
"                                           ",
"                                           ",
"                                           ",
"                                           ",
"                                           ",
"                                           ",
"                                           ",
"                                           ",
"                                           ",
"                                           ",
"                                           ",
"                                           ",
"                                           ",
"                                           ",
"                                           ",
"                                           ",
"                                           ",
"                                           ",
"                .+@#$$#@+.                 ",
"                                           ",
"              . %&*=--;*>,'                ",
"              )!~{]^//^(_:<[               ",
"            .)}|123455467890).             ",
"             !|abcdeffgdchij!              ",
"          . %~1b5fkkkkkkflm1n% .           ",
"          + &{2cfkkkkkkkkfopqr +           ",
"          @ *]3dkkkkkkkkkkdstu @           ",
"          # =^4ekkkkkkkkkkvwxy #           ",
"          $ -/5fkkkkkkkkkkf5zA $           ",
"          $ -/5fkkkkkkkkkkf5zA $           ",
"          # ;^4gkkkkkkkkkkvBxC #           ",
"          @ *(6dkkkkkkkkkkDsEu @           ",
"          + >_7cfkkkkkkkkfoFGr +           ",
"          . ,:8hlfkkkkkkf5bHn% .           ",
"            '<9imodvffvDoba|!              ",
"             [0j1psw55BsFH|}).             ",
"              )!nqtxzzxEGn!)               ",
"              . %ruyAACur% .               ",
"                                           ",
"                .+@#$$#@+.                 ",
"                                           ",
"                                           ",
"                                           ",
"                                           ",
"                                           ",
"                                           ",
"                                           ",
"                                           ",
"                                           ",
"                                           ",
"                                           ",
"                                           ",
"                                           ",
"                                           ",
"                                           ",
"                                           ",
"                                           ",
"                                           "};
