/* XPM */
static char * stick_toggled_inactive_xpm[] = {
"43 58 50 1",
" 	c #141A1B",
".	c #13191A",
"+	c #111718",
"@	c #3C4444",
"#	c #404848",
"$	c #454D4D",
"%	c #555F5E",
"&	c #606B6B",
"*	c #667170",
"=	c #606C6B",
"-	c #55605F",
";	c #454F4F",
">	c #3A4242",
",	c #4B5555",
"'	c #5C6666",
")	c #687473",
"!	c #717E7D",
"~	c #768382",
"{	c #687574",
"]	c #5C6867",
"^	c #4D5756",
"/	c #3B4444",
"(	c #586363",
"_	c #677474",
":	c #6F7C7B",
"<	c #748180",
"[	c #778483",
"}	c #788685",
"|	c #778584",
"1	c #6F7C7C",
"2	c #596463",
"3	c #3A4342",
"4	c #758382",
"5	c #798786",
"6	c #4C5555",
"7	c #5B6666",
"8	c #444D4D",
"9	c #738180",
"0	c #677473",
"a	c #545F5E",
"b	c #707E7D",
"c	c #5F6B6A",
"d	c #657170",
"e	c #3F4848",
"f	c #677373",
"g	c #535E5E",
"h	c #5A6665",
"i	c #434D4D",
"j	c #576362",
"k	c #394242",
"                                           ",
"                                           ",
"                                           ",
"                                           ",
"                                           ",
"                                           ",
"                                           ",
"                                           ",
"                                           ",
"                                           ",
"                                           ",
"                                           ",
"                                           ",
"                                           ",
"                                           ",
"                                           ",
"                                           ",
"                                           ",
"                   .++.                    ",
"                                           ",
"                   @##@                    ",
"                 $%&**=-;                  ",
"               >,')!~~!{]^/                ",
"              >(_:<[}}|<1{23               ",
"              ,_4}555555}4{6               ",
"             $':}55555555}:78              ",
"             %)<555555555590a              ",
"          . @&![5555555555[bc@ .           ",
"          + #*~}5555555555}4de +           ",
"          + #*~}5555555555}4de +           ",
"          . @=!|5555555555[bc@ .           ",
"             -{<55555555559fg              ",
"             ;]1}55555555}:hi              ",
"              ^{4}555555}40,               ",
"              /2{:9[}}[9:0jk               ",
"               3670b44bfh,k                ",
"                 8acddcgi                  ",
"                   @ee@                    ",
"                                           ",
"                   .++.                    ",
"                                           ",
"                                           ",
"                                           ",
"                                           ",
"                                           ",
"                                           ",
"                                           ",
"                                           ",
"                                           ",
"                                           ",
"                                           ",
"                                           ",
"                                           ",
"                                           ",
"                                           ",
"                                           ",
"                                           ",
"                                           "};
